<?xml version="1.0" encoding="utf-8" standalone="no"?>
<!DOCTYPE svg PUBLIC "-//W3C//DTD SVG 1.1//EN"
  "http://www.w3.org/Graphics/SVG/1.1/DTD/svg11.dtd">
<!-- Created with matplotlib (https://matplotlib.org/) -->
<svg height="288pt" version="1.1" viewBox="0 0 720 288" width="720pt" xmlns="http://www.w3.org/2000/svg" xmlns:xlink="http://www.w3.org/1999/xlink">
 <defs>
  <style type="text/css">
*{stroke-linecap:butt;stroke-linejoin:round;}
  </style>
 </defs>
 <g id="figure_1">
  <g id="patch_1">
   <path d="M 0 288 
L 720 288 
L 720 0 
L 0 0 
z
" style="fill:#ffffff;"/>
  </g>
  <g id="axes_1">
   <g id="patch_2">
    <path d="M 90 256.32 
L 648 256.32 
L 648 34.56 
L 90 34.56 
z
" style="fill:#ffffff;"/>
   </g>
   <g id="PathCollection_1">
    <defs>
     <path d="M 0 -2.738613 
L -2.738613 2.738613 
L 2.738613 2.738613 
z
" id="me9a04f84fe" style="stroke:#808080;"/>
    </defs>
    <g clip-path="url(#p526364ed8d)">
     <use style="fill:#808080;stroke:#808080;" x="113.25" xlink:href="#me9a04f84fe" y="57.700174"/>
    </g>
   </g>
   <g id="PathCollection_2">
    <g clip-path="url(#p526364ed8d)">
     <use style="fill:#808080;stroke:#808080;" x="578.25" xlink:href="#me9a04f84fe" y="57.700174"/>
    </g>
   </g>
   <g id="PathCollection_3">
    <defs>
     <path d="M 3.535534 0 
L -3.535534 -3.535534 
L -3.535534 3.535534 
z
" id="m9180cfc328" style="stroke:#000000;"/>
    </defs>
    <g clip-path="url(#p526364ed8d)">
     <use style="stroke:#000000;" x="644.5125" xlink:href="#m9180cfc328" y="246.678261"/>
    </g>
   </g>
   <g id="PathCollection_4">
    <defs>
     <path d="M 0 -3.535534 
L -3.535534 3.535534 
L 3.535534 3.535534 
z
" id="m98a0435b82" style="stroke:#000000;"/>
    </defs>
    <g clip-path="url(#p526364ed8d)">
     <use style="stroke:#000000;" x="345.75" xlink:href="#m98a0435b82" y="37.838191"/>
    </g>
   </g>
   <g id="matplotlib.axis_1">
    <g id="xtick_1">
     <g id="line2d_1">
      <defs>
       <path d="M 0 0 
L 0 3.5 
" id="mecb2f133d6" style="stroke:#000000;stroke-width:0.8;"/>
      </defs>
      <g>
       <use style="stroke:#000000;stroke-width:0.8;" x="113.25" xlink:href="#mecb2f133d6" y="246.678261"/>
      </g>
     </g>
     <g id="text_1">
      <!-- −1 -->
      <defs>
       <path d="M 62.09375 22 
L 6.40625 22 
L 6.40625 28.59375 
L 62.09375 28.59375 
z
" id="STIXGeneral-Regular-8722"/>
       <path d="M 39.40625 0 
L 11.796875 0 
L 11.796875 1.5 
Q 17.296875 1.796875 19.296875 3.546875 
Q 21.296875 5.296875 21.296875 9.5 
L 21.296875 54.40625 
Q 21.296875 59.296875 18.296875 59.296875 
Q 16.90625 59.296875 13.796875 58.09375 
L 11.09375 57.09375 
L 11.09375 58.5 
L 29 67.59375 
L 29.90625 67.296875 
L 29.90625 7.59375 
Q 29.90625 4.296875 31.90625 2.890625 
Q 33.90625 1.5 39.40625 1.5 
z
" id="STIXGeneral-Regular-49"/>
      </defs>
      <g transform="translate(113.25 261.873886)scale(0.12 -0.12)">
       <use xlink:href="#STIXGeneral-Regular-8722"/>
       <use x="68.499985" xlink:href="#STIXGeneral-Regular-49"/>
      </g>
     </g>
    </g>
    <g id="xtick_2">
     <g id="line2d_2">
      <g>
       <use style="stroke:#000000;stroke-width:0.8;" x="345.75" xlink:href="#mecb2f133d6" y="246.678261"/>
      </g>
     </g>
     <g id="text_2">
      <!-- 0 -->
      <defs>
       <path d="M 47.59375 33 
Q 47.59375 26.296875 46.296875 20.34375 
Q 45 14.40625 42.453125 9.40625 
Q 39.90625 4.40625 35.40625 1.5 
Q 30.90625 -1.40625 25 -1.40625 
Q 18.90625 -1.40625 14.296875 1.6875 
Q 9.703125 4.796875 7.203125 10 
Q 4.703125 15.203125 3.546875 21.09375 
Q 2.40625 27 2.40625 33.59375 
Q 2.40625 42.90625 4.703125 50.34375 
Q 7 57.796875 12.34375 62.6875 
Q 17.703125 67.59375 25.40625 67.59375 
Q 35.203125 67.59375 41.390625 58 
Q 47.59375 48.40625 47.59375 33 
z
M 38 32.5 
Q 38 48.296875 34.640625 56.640625 
Q 31.296875 65 24.796875 65 
Q 18.59375 65 15.296875 56.59375 
Q 12 48.203125 12 32.90625 
Q 12 17.5 15.296875 9.34375 
Q 18.59375 1.203125 25 1.203125 
Q 31.296875 1.203125 34.640625 9.34375 
Q 38 17.5 38 32.5 
z
" id="STIXGeneral-Regular-48"/>
      </defs>
      <g transform="translate(345.75 261.873886)scale(0.12 -0.12)">
       <use xlink:href="#STIXGeneral-Regular-48"/>
      </g>
     </g>
    </g>
    <g id="xtick_3">
     <g id="line2d_3">
      <g>
       <use style="stroke:#000000;stroke-width:0.8;" x="578.25" xlink:href="#mecb2f133d6" y="246.678261"/>
      </g>
     </g>
     <g id="text_3">
      <!-- 1 -->
      <g transform="translate(578.25 261.873886)scale(0.12 -0.12)">
       <use xlink:href="#STIXGeneral-Regular-49"/>
      </g>
     </g>
    </g>
   </g>
   <g id="matplotlib.axis_2">
    <g id="ytick_1">
     <g id="line2d_4">
      <defs>
       <path d="M 0 0 
L -3.5 0 
" id="md82c4fd600" style="stroke:#000000;stroke-width:0.8;"/>
      </defs>
      <g>
       <use style="stroke:#000000;stroke-width:0.8;" x="345.75" xlink:href="#md82c4fd600" y="53.843478"/>
      </g>
     </g>
     <g id="text_4">
      <!-- 1 -->
      <g transform="translate(332.75 57.941291)scale(0.12 -0.12)">
       <use xlink:href="#STIXGeneral-Regular-49"/>
      </g>
     </g>
    </g>
   </g>
   <g id="line2d_5">
    <path clip-path="url(#p526364ed8d)" d="M 113.25 53.843478 
L 117.94697 55.791304 
L 122.643939 57.73913 
L 127.340909 59.686957 
L 132.037879 61.634783 
L 136.734848 63.582609 
L 141.431818 65.530435 
L 146.128788 67.478261 
L 150.825758 69.426087 
L 155.522727 71.373913 
L 160.219697 73.321739 
L 164.916667 75.269565 
L 169.613636 77.217391 
L 174.310606 79.165217 
L 179.007576 81.113043 
L 183.704545 83.06087 
L 188.401515 85.008696 
L 193.098485 86.956522 
L 197.795455 88.904348 
L 202.492424 90.852174 
L 207.189394 92.8 
L 211.886364 94.747826 
L 216.583333 96.695652 
L 221.280303 98.643478 
L 225.977273 100.591304 
L 230.674242 102.53913 
L 235.371212 104.486957 
L 240.068182 106.434783 
L 244.765152 108.382609 
L 249.462121 110.330435 
L 254.159091 112.278261 
L 258.856061 114.226087 
L 263.55303 116.173913 
L 268.25 118.121739 
L 272.94697 120.069565 
L 277.643939 122.017391 
L 282.340909 123.965217 
L 287.037879 125.913043 
L 291.734848 127.86087 
L 296.431818 129.808696 
L 301.128788 131.756522 
L 305.825758 133.704348 
L 310.522727 135.652174 
L 315.219697 137.6 
L 319.916667 139.547826 
L 324.613636 141.495652 
L 329.310606 143.443478 
L 334.007576 145.391304 
L 338.704545 147.33913 
L 343.401515 149.286957 
L 348.098485 151.234783 
L 352.795455 153.182609 
L 357.492424 155.130435 
L 362.189394 157.078261 
L 366.886364 159.026087 
L 371.583333 160.973913 
L 376.280303 162.921739 
L 380.977273 164.869565 
L 385.674242 166.817391 
L 390.371212 168.765217 
L 395.068182 170.713043 
L 399.765152 172.66087 
L 404.462121 174.608696 
L 409.159091 176.556522 
L 413.856061 178.504348 
L 418.55303 180.452174 
L 423.25 182.4 
L 427.94697 184.347826 
L 432.643939 186.295652 
L 437.340909 188.243478 
L 442.037879 190.191304 
L 446.734848 192.13913 
L 451.431818 194.086957 
L 456.128788 196.034783 
L 460.825758 197.982609 
L 465.522727 199.930435 
L 470.219697 201.878261 
L 474.916667 203.826087 
L 479.613636 205.773913 
L 484.310606 207.721739 
L 489.007576 209.669565 
L 493.704545 211.617391 
L 498.401515 213.565217 
L 503.098485 215.513043 
L 507.795455 217.46087 
L 512.492424 219.408696 
L 517.189394 221.356522 
L 521.886364 223.304348 
L 526.583333 225.252174 
L 531.280303 227.2 
L 535.977273 229.147826 
L 540.674242 231.095652 
L 545.371212 233.043478 
L 550.068182 234.991304 
L 554.765152 236.93913 
L 559.462121 238.886957 
L 564.159091 240.834783 
L 568.856061 242.782609 
L 573.55303 244.730435 
L 578.25 246.678261 
" style="fill:none;stroke:#0000ff;stroke-linecap:square;stroke-width:2;"/>
   </g>
   <g id="line2d_6">
    <path clip-path="url(#p526364ed8d)" d="M 113.25 246.678261 
L 117.94697 244.730435 
L 122.643939 242.782609 
L 127.340909 240.834783 
L 132.037879 238.886957 
L 136.734848 236.93913 
L 141.431818 234.991304 
L 146.128788 233.043478 
L 150.825758 231.095652 
L 155.522727 229.147826 
L 160.219697 227.2 
L 164.916667 225.252174 
L 169.613636 223.304348 
L 174.310606 221.356522 
L 179.007576 219.408696 
L 183.704545 217.46087 
L 188.401515 215.513043 
L 193.098485 213.565217 
L 197.795455 211.617391 
L 202.492424 209.669565 
L 207.189394 207.721739 
L 211.886364 205.773913 
L 216.583333 203.826087 
L 221.280303 201.878261 
L 225.977273 199.930435 
L 230.674242 197.982609 
L 235.371212 196.034783 
L 240.068182 194.086957 
L 244.765152 192.13913 
L 249.462121 190.191304 
L 254.159091 188.243478 
L 258.856061 186.295652 
L 263.55303 184.347826 
L 268.25 182.4 
L 272.94697 180.452174 
L 277.643939 178.504348 
L 282.340909 176.556522 
L 287.037879 174.608696 
L 291.734848 172.66087 
L 296.431818 170.713043 
L 301.128788 168.765217 
L 305.825758 166.817391 
L 310.522727 164.869565 
L 315.219697 162.921739 
L 319.916667 160.973913 
L 324.613636 159.026087 
L 329.310606 157.078261 
L 334.007576 155.130435 
L 338.704545 153.182609 
L 343.401515 151.234783 
L 348.098485 149.286957 
L 352.795455 147.33913 
L 357.492424 145.391304 
L 362.189394 143.443478 
L 366.886364 141.495652 
L 371.583333 139.547826 
L 376.280303 137.6 
L 380.977273 135.652174 
L 385.674242 133.704348 
L 390.371212 131.756522 
L 395.068182 129.808696 
L 399.765152 127.86087 
L 404.462121 125.913043 
L 409.159091 123.965217 
L 413.856061 122.017391 
L 418.55303 120.069565 
L 423.25 118.121739 
L 427.94697 116.173913 
L 432.643939 114.226087 
L 437.340909 112.278261 
L 442.037879 110.330435 
L 446.734848 108.382609 
L 451.431818 106.434783 
L 456.128788 104.486957 
L 460.825758 102.53913 
L 465.522727 100.591304 
L 470.219697 98.643478 
L 474.916667 96.695652 
L 479.613636 94.747826 
L 484.310606 92.8 
L 489.007576 90.852174 
L 493.704545 88.904348 
L 498.401515 86.956522 
L 503.098485 85.008696 
L 507.795455 83.06087 
L 512.492424 81.113043 
L 517.189394 79.165217 
L 521.886364 77.217391 
L 526.583333 75.269565 
L 531.280303 73.321739 
L 535.977273 71.373913 
L 540.674242 69.426087 
L 545.371212 67.478261 
L 550.068182 65.530435 
L 554.765152 63.582609 
L 559.462121 61.634783 
L 564.159091 59.686957 
L 568.856061 57.73913 
L 573.55303 55.791304 
L 578.25 53.843478 
" style="fill:none;stroke:#ffa500;stroke-linecap:square;stroke-width:2;"/>
   </g>
   <g id="line2d_7">
    <path clip-path="url(#p526364ed8d)" d="M 113.25 246.678261 
L 113.25 53.843478 
" style="fill:none;stroke:#808080;stroke-linecap:square;"/>
   </g>
   <g id="line2d_8">
    <path clip-path="url(#p526364ed8d)" d="M 578.25 246.678261 
L 578.25 53.843478 
" style="fill:none;stroke:#808080;stroke-linecap:square;"/>
   </g>
   <g id="patch_3">
    <path d="M 345.75 256.32 
L 345.75 34.56 
" style="fill:none;stroke:#000000;stroke-linecap:square;stroke-linejoin:miter;stroke-width:0.8;"/>
   </g>
   <g id="patch_4">
    <path d="M 648 256.32 
L 648 34.56 
" style="fill:none;"/>
   </g>
   <g id="patch_5">
    <path d="M 90 246.678261 
L 648 246.678261 
" style="fill:none;stroke:#000000;stroke-linecap:square;stroke-linejoin:miter;stroke-width:0.8;"/>
   </g>
   <g id="patch_6">
    <path d="M 90 34.56 
L 648 34.56 
" style="fill:none;"/>
   </g>
   <g id="text_5">
    <!-- $u_a$ -->
    <defs>
     <path d="M 46.09375 11.90625 
L 47.5 11 
Q 42.703125 3.703125 40 1.390625 
Q 37.296875 -0.90625 33.703125 -0.90625 
Q 28.90625 -0.90625 28.90625 3.90625 
Q 28.90625 8.40625 33.40625 23.59375 
Q 24.5 9 19.640625 3.953125 
Q 14.796875 -1.09375 9.5 -1.09375 
Q 4.203125 -1.09375 4.203125 4.203125 
Q 4.203125 6 6.90625 17 
L 10.40625 30.90625 
Q 11.796875 36.703125 11.796875 37.59375 
Q 11.796875 38.796875 10.6875 39.390625 
Q 9.59375 40 5.703125 40 
L 5.703125 41.40625 
Q 12.59375 42.203125 20.703125 44.09375 
L 21.09375 43.796875 
L 12.203125 8.296875 
Q 11.90625 7.40625 11.90625 6.703125 
Q 11.90625 4.203125 13.90625 4.203125 
Q 18.40625 4.203125 28.09375 18.90625 
Q 31.40625 23.90625 33.25 28.046875 
Q 35.09375 32.203125 39.09375 43.203125 
L 46.5 43.203125 
L 38.59375 13.296875 
Q 36.703125 6.09375 36.703125 5.5 
Q 36.703125 3.796875 37.796875 3.796875 
Q 39 3.796875 40.703125 5.390625 
Q 42.40625 7 46.09375 11.90625 
z
" id="STIXGeneral-Italic-117"/>
     <path d="M 46.296875 11.09375 
L 47.59375 10 
Q 42 3.203125 39.34375 1.09375 
Q 36.703125 -1 33.703125 -1 
Q 29.703125 -1 29.703125 3.09375 
Q 29.703125 5.59375 32 14.59375 
Q 26.40625 6.203125 21.703125 2.546875 
Q 17 -1.09375 11.703125 -1.09375 
Q 7.296875 -1.09375 4.5 1.953125 
Q 1.703125 5 1.703125 10.5 
Q 1.703125 18.09375 6.046875 26 
Q 10.40625 33.90625 17.09375 39 
Q 23.796875 44.09375 30.296875 44.09375 
Q 37 44.09375 38.296875 38.296875 
L 39.40625 43.09375 
L 39.703125 43.40625 
L 45.796875 44.09375 
L 46.5 43.796875 
Q 46.40625 43.40625 45.90625 41.703125 
Q 37 9.296875 37 5.40625 
Q 37 4.09375 38.40625 4.09375 
Q 39.90625 4.09375 43.59375 8.203125 
z
M 36.5 36.09375 
Q 36.5 38.703125 35 40.296875 
Q 33.5 41.90625 30.90625 41.90625 
Q 24.09375 41.90625 17.796875 32.703125 
Q 14.5 27.796875 12.296875 21.796875 
Q 10.09375 15.796875 10.09375 11.203125 
Q 10.09375 3.796875 16.09375 3.796875 
Q 22 3.796875 28.796875 13.59375 
Q 36.5 24.703125 36.5 36.09375 
z
" id="STIXGeneral-Italic-97"/>
    </defs>
    <g style="fill:#0000ff;" transform="translate(120.225 150.26087)scale(0.16 -0.16)">
     <use transform="translate(0 0.90625)" xlink:href="#STIXGeneral-Italic-117"/>
     <use transform="translate(49.999985 -12.321875)scale(0.7)" xlink:href="#STIXGeneral-Italic-97"/>
    </g>
   </g>
   <g id="text_6">
    <!-- $u_b$ -->
    <defs>
     <path d="M 16.296875 29 
L 16.40625 29 
Q 21.40625 37.296875 25.84375 40.6875 
Q 30.296875 44.09375 35.703125 44.09375 
Q 40.90625 44.09375 44.09375 40.890625 
Q 47.296875 37.703125 47.296875 32.09375 
Q 47.296875 24.40625 42.59375 16.59375 
Q 37.90625 8.796875 30.34375 3.84375 
Q 22.796875 -1.09375 15.296875 -1.09375 
Q 10.703125 -1.09375 6.5 0.5 
Q 2.296875 2.09375 2.296875 4.203125 
L 2.296875 4.796875 
L 16.5 57.09375 
Q 17.40625 60.703125 17.40625 61.796875 
Q 17.40625 63.40625 16.453125 63.75 
Q 15.5 64.09375 11 64.296875 
L 11 66 
Q 18.5 66.90625 26.296875 68.296875 
L 26.796875 67.796875 
L 24.703125 59.59375 
z
M 38.796875 30.59375 
Q 38.796875 39.203125 31.796875 39.203125 
Q 24.90625 39.203125 18.09375 27.703125 
Q 14.90625 22.296875 12.90625 15.75 
Q 10.90625 9.203125 10.90625 4.59375 
Q 10.90625 1.203125 15.5 1.203125 
Q 22.09375 1.203125 27.796875 7.09375 
Q 32.40625 11.90625 35.59375 18.546875 
Q 38.796875 25.203125 38.796875 30.59375 
z
" id="STIXGeneral-Italic-98"/>
    </defs>
    <g style="fill:#ffa500;" transform="translate(555 150.26087)scale(0.16 -0.16)">
     <use transform="translate(0 0.90625)" xlink:href="#STIXGeneral-Italic-117"/>
     <use transform="translate(49.999985 -12.321875)scale(0.7)" xlink:href="#STIXGeneral-Italic-98"/>
    </g>
   </g>
   <g id="text_7">
    <!-- $r$ -->
    <defs>
     <path d="M 17.59375 22.296875 
L 19.203125 25.796875 
Q 22.59375 33.296875 28.59375 39.59375 
Q 32.90625 44.09375 36.5 44.09375 
Q 38.59375 44.09375 39.890625 42.6875 
Q 41.203125 41.296875 41.203125 39 
Q 41.203125 36.703125 39.953125 35.140625 
Q 38.703125 33.59375 36.5 33.59375 
Q 34.59375 33.59375 33 36.203125 
Q 32.203125 37.59375 31.40625 37.59375 
Q 28.703125 37.59375 23.203125 28.203125 
Q 19.796875 22.40625 17.75 17.25 
Q 15.703125 12.09375 12.09375 0 
L 4.5 0 
L 12.59375 29.203125 
Q 14.203125 35.09375 14.203125 37.40625 
Q 14.203125 40 10.40625 40 
Q 9.59375 40 7.296875 39.703125 
L 7.296875 41.40625 
L 22.796875 44.09375 
L 23.09375 43.90625 
z
" id="STIXGeneral-Italic-114"/>
    </defs>
    <g transform="translate(631.725 240.893217)scale(0.18 -0.18)">
     <use transform="translate(0 0.90625)" xlink:href="#STIXGeneral-Italic-114"/>
    </g>
   </g>
   <g id="text_8">
    <!-- $u(r)$ -->
    <defs>
     <path d="M 30.40625 -16.09375 
L 29.203125 -17.703125 
Q 17.59375 -11.09375 11.1875 0.5 
Q 4.796875 12.09375 4.796875 25.203125 
Q 4.796875 52.90625 29.5 67.59375 
L 30.40625 66 
Q 20.203125 57.296875 16.796875 48.84375 
Q 13.40625 40.40625 13.40625 25.5 
Q 13.40625 10.703125 16.90625 1.5 
Q 20.40625 -7.703125 30.40625 -16.09375 
z
" id="STIXGeneral-Regular-40"/>
     <path d="M 2.90625 66 
L 4.09375 67.59375 
Q 15.5 60.796875 22 49.1875 
Q 28.5 37.59375 28.5 24.703125 
Q 28.5 -2.59375 3.796875 -17.703125 
L 2.90625 -16.09375 
Q 13.203125 -7.59375 16.546875 0.84375 
Q 19.90625 9.296875 19.90625 24.40625 
Q 19.90625 39.59375 16.546875 48.75 
Q 13.203125 57.90625 2.90625 66 
z
" id="STIXGeneral-Regular-41"/>
    </defs>
    <g transform="translate(352.725 44.201739)scale(0.18 -0.18)">
     <use transform="translate(0 0.40625)" xlink:href="#STIXGeneral-Italic-117"/>
     <use transform="translate(49.999985 0.40625)" xlink:href="#STIXGeneral-Regular-40"/>
     <use transform="translate(83.299973 0.40625)" xlink:href="#STIXGeneral-Italic-114"/>
     <use transform="translate(122.199966 0.40625)" xlink:href="#STIXGeneral-Regular-41"/>
    </g>
   </g>
   <g id="legend_1">
    <g id="patch_7">
     <path d="M 594.2 88.076625 
L 638.420313 88.076625 
Q 640.420313 88.076625 640.420313 86.076625 
L 640.420313 58.736 
Q 640.420313 56.736 638.420313 56.736 
L 594.2 56.736 
Q 592.2 56.736 592.2 58.736 
L 592.2 86.076625 
Q 592.2 88.076625 594.2 88.076625 
z
" style="fill:#ffffff;opacity:0.8;stroke:#cccccc;stroke-linejoin:miter;"/>
    </g>
    <g id="line2d_9">
     <path d="M 596.2 64.236 
L 616.2 64.236 
" style="fill:none;stroke:#0000ff;stroke-linecap:square;stroke-width:2;"/>
    </g>
    <g id="line2d_10"/>
    <g id="text_9">
     <!-- N1 -->
     <defs>
      <path d="M 70.703125 66.203125 
L 70.703125 64.296875 
Q 65.59375 63.796875 64.09375 62.5 
Q 62.5 61.09375 61.84375 58.6875 
Q 61.203125 56.296875 61.203125 50.703125 
L 61.203125 -1.09375 
L 59.40625 -1.09375 
L 15.296875 53.796875 
L 15.296875 15 
Q 15.296875 7.40625 17 5.046875 
Q 18.703125 2.703125 24.59375 1.90625 
L 24.59375 0 
L 1.203125 0 
L 1.203125 1.90625 
Q 7.40625 2.59375 9.15625 4.84375 
Q 10.90625 7.09375 10.90625 15 
L 10.90625 59 
Q 8.296875 62.203125 6.5 63.25 
Q 4.703125 64.296875 1.203125 64.296875 
L 1.203125 66.203125 
L 18.203125 66.203125 
L 56.796875 17.90625 
L 56.796875 51.90625 
Q 56.796875 59.5 54.90625 61.703125 
Q 53.703125 63 52.25 63.453125 
Q 50.796875 63.90625 47 64.296875 
L 47 66.203125 
z
" id="STIXGeneral-Regular-78"/>
     </defs>
     <g transform="translate(624.2 67.736)scale(0.1 -0.1)">
      <use xlink:href="#STIXGeneral-Regular-78"/>
      <use x="72.199982" xlink:href="#STIXGeneral-Regular-49"/>
     </g>
    </g>
    <g id="line2d_11">
     <path d="M 596.2 78.406312 
L 616.2 78.406312 
" style="fill:none;stroke:#ffa500;stroke-linecap:square;stroke-width:2;"/>
    </g>
    <g id="line2d_12"/>
    <g id="text_10">
     <!-- N2 -->
     <defs>
      <path d="M 47.40625 13.703125 
L 42 0 
L 2.90625 0 
L 2.90625 1.203125 
L 20.703125 20.09375 
Q 27.703125 27.40625 30.703125 33.5 
Q 33.703125 39.59375 33.703125 46.09375 
Q 33.703125 52.796875 30 56.5 
Q 26.296875 60.203125 19.796875 60.203125 
Q 14.40625 60.203125 11.25 57.390625 
Q 8.09375 54.59375 5.09375 47.203125 
L 3 47.703125 
Q 4.703125 57 9.84375 62.296875 
Q 15 67.59375 23.796875 67.59375 
Q 32.09375 67.59375 37.1875 62.59375 
Q 42.296875 57.59375 42.296875 50 
Q 42.296875 38.703125 29.5 25.203125 
L 13 7.59375 
L 36.40625 7.59375 
Q 39.703125 7.59375 41.640625 8.890625 
Q 43.59375 10.203125 46 14.296875 
z
" id="STIXGeneral-Regular-50"/>
     </defs>
     <g transform="translate(624.2 81.906312)scale(0.1 -0.1)">
      <use xlink:href="#STIXGeneral-Regular-78"/>
      <use x="72.199982" xlink:href="#STIXGeneral-Regular-50"/>
     </g>
    </g>
   </g>
  </g>
 </g>
 <defs>
  <clipPath id="p526364ed8d">
   <rect height="221.76" width="558" x="90" y="34.56"/>
  </clipPath>
 </defs>
</svg>
