<?xml version="1.0" encoding="UTF-8" standalone="no"?>
<svg
   xmlns:dc="http://purl.org/dc/elements/1.1/"
   xmlns:cc="http://creativecommons.org/ns#"
   xmlns:rdf="http://www.w3.org/1999/02/22-rdf-syntax-ns#"
   xmlns:svg="http://www.w3.org/2000/svg"
   xmlns="http://www.w3.org/2000/svg"
   xmlns:sodipodi="http://sodipodi.sourceforge.net/DTD/sodipodi-0.dtd"
   xmlns:inkscape="http://www.inkscape.org/namespaces/inkscape"
   id="Layer_1"
   viewBox="0 0 173.02437 31.818369"
   version="1.1"
   sodipodi:docname="logo-horizontal-large.svg"
   width="173.02435"
   height="31.818367"
   inkscape:version="0.92.1 r15371">
  <metadata
     id="metadata77">
    <rdf:RDF>
      <cc:Work
         rdf:about="">
        <dc:format>image/svg+xml</dc:format>
        <dc:type
           rdf:resource="http://purl.org/dc/dcmitype/StillImage" />
        <dc:title></dc:title>
      </cc:Work>
    </rdf:RDF>
  </metadata>
  <defs
     id="defs75" />
  <sodipodi:namedview
     pagecolor="#ffffff"
     bordercolor="#666666"
     borderopacity="1"
     objecttolerance="10"
     gridtolerance="10"
     guidetolerance="10"
     inkscape:pageopacity="0"
     inkscape:pageshadow="2"
     inkscape:window-width="1680"
     inkscape:window-height="988"
     id="namedview73"
     showgrid="false"
     fit-margin-left="1"
     fit-margin-top="1"
     fit-margin-bottom="1"
     fit-margin-right="1"
     inkscape:zoom="2.1094857"
     inkscape:cx="26.357828"
     inkscape:cy="12.518368"
     inkscape:window-x="0"
     inkscape:window-y="25"
     inkscape:window-maximized="1"
     inkscape:current-layer="Layer_1" />
  <style
     id="style2">.st0{fill:#3fae2a}.st1{fill:none}.st2{fill:#263746}.st3{fill:#fff}</style>
  <path
     class="st0"
     d="M 45.193612,2.3143082 C 45.111472,2.1500203 45.029317,2.0678755 44.78289,2.0678755 h -0.246431 c -0.246435,0 -0.328578,0.082143 -0.410722,0.2464327 L 36.814898,18.16815 c -0.164295,0.328578 0.08214,0.57501 0.41072,0.57501 h 2.053608 c 0.410722,0 0.575009,-0.246432 0.657153,-0.492865 L 41.0864,15.703823 h 7.064405 l 1.15002,2.546472 c 0.164295,0.328577 0.328578,0.492865 0.657154,0.492865 h 2.053608 c 0.328575,0 0.575009,-0.328577 0.41072,-0.57501 z M 42.236419,13.15735 44.536459,7.9822622 h 0.08214 L 47.000783,13.15735 Z M 67.618995,2.3143082 h -2.13575 c -0.246434,0 -0.410722,0.2464327 -0.410722,0.4107213 V 12.500196 L 55.215212,2.0678755 h -0.57501 c -0.246431,0 -0.410721,0.1642879 -0.410721,0.4107211 V 18.33244 c 0,0.246432 0.246433,0.41072 0.410721,0.41072 h 2.135752 c 0.246432,0 0.41072,-0.246432 0.41072,-0.41072 V 8.228695 l 9.857311,10.843043 h 0.57501 c 0.246433,0 0.410721,-0.164295 0.410721,-0.410722 V 2.7250295 c 0.08214,-0.164288 -0.164294,-0.4107213 -0.410721,-0.4107213 z m 10.596611,0 C 78.133462,2.1500196 78.051316,2.0678755 77.804884,2.0678755 h -0.246433 c -0.246433,0 -0.328576,0.082143 -0.41072,0.2464327 L 69.83689,18.16815 c -0.164294,0.328578 0.08214,0.57501 0.410722,0.57501 h 2.053606 c 0.410721,0 0.575011,-0.246432 0.657155,-0.492865 l 1.150019,-2.464328 h 7.064407 l 1.150018,2.546473 c 0.164295,0.328576 0.328578,0.492866 0.657156,0.492866 h 2.053606 c 0.328577,0 0.57501,-0.328578 0.410722,-0.575011 z M 75.258413,13.15735 77.558451,7.9822622 h 0.08214 l 2.382183,5.1750878 z m 23.082536,1.478598 c -0.164294,-0.164289 -0.410721,-0.164289 -0.575009,0 -0.985732,0.821442 -2.217896,1.314307 -3.614349,1.314307 -3.039336,0 -5.257232,-2.464327 -5.257232,-5.421521 0,-2.957193 2.217896,-5.5036651 5.257232,-5.5036651 1.314309,0 2.628617,0.4928654 3.614349,1.3964523 0.164294,0.1642879 0.410721,0.1642879 0.575009,0 l 1.396453,-1.4785966 c 0.164295,-0.164288 0.164295,-0.4928656 0,-0.6571542 -1.560741,-1.3964523 -3.285771,-2.2178949 -5.667954,-2.2178949 -4.682224,0 -8.460859,3.7786359 -8.460859,8.4608585 0,4.682224 3.778635,8.460859 8.460859,8.460859 2.135751,0 4.107213,-0.739298 5.750097,-2.300039 0.164295,-0.164295 0.246435,-0.492866 0,-0.657154 z M 109.43043,2.0678755 c -4.68223,0 -8.46086,3.7786359 -8.46086,8.4608585 0,4.682224 3.77863,8.460859 8.46086,8.460859 4.68222,0 8.46085,-3.778635 8.46085,-8.460859 0,-4.6822226 -3.69649,-8.4608585 -8.46085,-8.4608585 z m 0,13.8823795 c -2.9572,0 -5.42153,-2.464327 -5.42153,-5.421521 0,-2.957193 2.46433,-5.4215208 5.42153,-5.4215208 2.95719,0 5.42152,2.4643278 5.42152,5.4215208 0,3.039338 -2.46433,5.421521 -5.42152,5.421521 z M 133.99156,2.3143082 h -2.13575 c -0.24643,0 -0.41072,0.2464327 -0.41072,0.4107213 V 12.500196 L 121.50563,2.0678755 h -0.57501 c -0.24643,0 -0.41072,0.1642879 -0.41072,0.4107211 V 18.33244 c 0,0.246432 0.24643,0.41072 0.41072,0.41072 h 2.13575 c 0.24644,0 0.41072,-0.246432 0.41072,-0.41072 V 8.228695 l 9.85732,10.843043 h 0.575 c 0.24644,0 0.41073,-0.164295 0.41073,-0.410722 V 2.7250295 c 0.0821,-0.164288 -0.0821,-0.4107213 -0.32858,-0.4107213 z m 9.44659,0 h -5.58581 c -0.24643,0 -0.41072,0.2464327 -0.41072,0.4107213 V 18.33244 c 0,0.246432 0.16429,0.41072 0.41072,0.41072 h 5.58581 c 4.51793,0 8.29657,-3.696491 8.29657,-8.29657 -0.0821,-4.43579 -3.77864,-8.1322818 -8.29657,-8.1322818 z m -0.32858,13.6359468 h -2.71076 V 5.1893573 h 2.71076 c 3.03934,0 5.25724,2.3000394 5.25724,5.3393767 0.0821,3.121483 -2.2179,5.421521 -5.25724,5.421521 z m 24.3147,2.217895 -7.22869,-15.8538418 c -0.0821,-0.1642879 -0.1643,-0.2464327 -0.41072,-0.2464327 h -0.24644 c -0.24643,0 -0.32857,0.082143 -0.41072,0.2464327 L 151.81686,18.16815 c -0.16429,0.328578 0.0821,0.57501 0.41073,0.57501 h 2.0536 c 0.41072,0 0.57501,-0.246432 0.65716,-0.492865 l 1.15002,-2.546472 h 7.0644 l 1.15002,2.546472 c 0.1643,0.328577 0.32858,0.492865 0.65716,0.492865 h 2.0536 c 0.32858,0.08214 0.57501,-0.246432 0.41072,-0.57501 z m -10.18589,-5.0108 2.30004,-5.1750878 h 0.0821 l 2.38219,5.1750878 z"
     id="path4"
     inkscape:connector-curvature="0"
     style="fill:#3fae2a;stroke-width:0.8214426" />
  <path
     class="st1"
     d="m 170.95649,21.536065 c 0,-0.08214 -0.0822,-0.164295 -0.16425,-0.164295 h -0.32857 v 0.410722 h 0.32857 c 0.0822,-0.08214 0.16425,-0.164295 0.16425,-0.246434 z"
     id="path6"
     inkscape:connector-curvature="0"
     style="fill:none;stroke-width:0.8214426" />
  <path
     class="st1"
     d="m 170.6279,22.850373 c 0.65716,0 1.15002,-0.492865 1.15002,-1.150018 0,-0.657155 -0.49286,-1.150021 -1.15002,-1.150021 -0.65715,0 -1.15002,0.492866 -1.15002,1.150021 0,0.657153 0.57501,1.150018 1.15002,1.150018 z m -0.49287,-1.72503 c 0,0 0,-0.08214 0,0 l 0.65716,-0.08214 c 0.24643,0 0.49287,0.164294 0.49287,0.492865 0,0.246433 -0.16425,0.410721 -0.32857,0.410721 0.0822,0.164295 0.16424,0.328578 0.16424,0.410722 0,0.08214 0,0.08214 -0.0822,0.08214 h -0.16424 c 0,0 -0.0822,0 -0.0822,-0.08214 l -0.16424,-0.492865 h -0.24644 v 0.492865 c 0,0 0,0.08214 -0.0822,0.08214 h -0.0822 c -0.0822,0 -0.0822,0 -0.0822,-0.08214 z"
     id="path8"
     inkscape:connector-curvature="0"
     style="fill:none;stroke-width:0.8214426" />
  <path
     class="st0"
     d="m 170.21718,22.439651 h 0.16425 c 0.0822,0 0.0822,0 0.0822,-0.08214 v -0.410722 h 0.24643 l 0.16425,0.492866 c 0,0 0,0.08214 0.0822,0.08214 h 0.16424 c 0.0822,0 0.0822,-0.08214 0.0822,-0.08214 -0.0822,-0.164294 -0.16424,-0.246431 -0.16424,-0.410721 0.0822,-0.08214 0.32857,-0.164295 0.32857,-0.410722 0,-0.328576 -0.24644,-0.492866 -0.49287,-0.492866 h -0.65714 c -0.0822,0 -0.0822,0 -0.0822,0.08214 l 0.0822,1.232163 c -0.0822,0 -0.0822,0 0,0 z m 0.16425,-1.150018 h 0.32859 c 0.0822,0 0.16424,0.08214 0.16424,0.164295 0,0.08214 -0.0822,0.164295 -0.16424,0.164295 h -0.32859 z"
     id="path10"
     inkscape:connector-curvature="0"
     style="fill:#3fae2a;stroke-width:0.8214426" />
  <path
     class="st0"
     d="m 170.6279,23.178951 c 0.7393,0 1.39646,-0.657155 1.39646,-1.396453 0,-0.739298 -0.65716,-1.396452 -1.39646,-1.396452 -0.7393,0 -1.39645,0.657154 -1.39645,1.396452 0,0.739298 0.65715,1.396453 1.39645,1.396453 z m 0,-2.546474 c 0.65716,0 1.15002,0.492866 1.15002,1.150021 0,0.657153 -0.49286,1.15002 -1.15002,1.15002 -0.65715,0 -1.15002,-0.492867 -1.15002,-1.15002 0,-0.657155 0.57501,-1.150021 1.15002,-1.150021 z"
     id="path12"
     inkscape:connector-curvature="0"
     style="fill:#3fae2a;stroke-width:0.8214426" />
  <g
     id="g16"
     transform="matrix(0.82144261,0,0,0.82144261,-0.56074096,0.17855739)">
    <path
       class="st2"
       d="m 48,28.1 c 1,0 1.8,0.2 2.3,0.6 0.5,0.4 0.8,1 0.8,1.7 0,0.4 -0.1,0.8 -0.2,1.1 -0.1,0.3 -0.4,0.5 -0.6,0.7 -0.3,0.2 -0.6,0.3 -1,0.4 -0.4,0.1 -0.9,0.1 -1.4,0.1 h -0.8 v 2.7 h -1 v -7.1 c 0.3,-0.1 0.6,-0.1 1,-0.1 0.3,-0.1 0.6,-0.1 0.9,-0.1 z m 0,0.9 h -1 v 2.8 h 0.8 c 0.3,0 0.7,0 0.9,-0.1 0.3,0 0.5,-0.1 0.7,-0.2 0.2,-0.1 0.3,-0.3 0.4,-0.4 C 49.9,30.9 50,30.7 50,30.4 50,30.1 49.9,29.9 49.8,29.7 49.7,29.5 49.5,29.4 49.4,29.3 49.2,29.2 49,29.1 48.8,29.1 48.6,29 48.3,29 48,29 Z m 9.2,3.7 c 0,0.4 -0.1,0.8 -0.2,1.2 -0.1,0.3 -0.3,0.6 -0.5,0.9 -0.2,0.2 -0.5,0.4 -0.8,0.6 -0.3,0.1 -0.7,0.2 -1,0.2 -0.3,0 -0.7,-0.1 -1,-0.2 -0.3,-0.1 -0.6,-0.3 -0.8,-0.6 -0.2,-0.2 -0.4,-0.5 -0.5,-0.9 -0.1,-0.3 -0.2,-0.7 -0.2,-1.2 0,-0.4 0.1,-0.8 0.2,-1.2 0.1,-0.3 0.3,-0.6 0.5,-0.9 0.2,-0.2 0.5,-0.4 0.8,-0.6 0.3,-0.1 0.7,-0.2 1,-0.2 0.3,0 0.7,0.1 1,0.2 0.3,0.1 0.6,0.3 0.8,0.6 0.2,0.2 0.4,0.5 0.5,0.9 0.1,0.4 0.2,0.8 0.2,1.2 z m -1,0 c 0,-0.6 -0.1,-1.1 -0.4,-1.4 -0.3,-0.4 -0.6,-0.5 -1.1,-0.5 -0.5,0 -0.8,0.2 -1.1,0.5 -0.3,0.4 -0.4,0.8 -0.4,1.4 0,0.6 0.1,1.1 0.4,1.4 0.3,0.4 0.6,0.5 1.1,0.5 0.5,0 0.8,-0.2 1.1,-0.5 0.2,-0.3 0.4,-0.8 0.4,-1.4 z m 6.9,2.7 c -0.2,-0.5 -0.4,-1.1 -0.6,-1.7 -0.2,-0.6 -0.4,-1.3 -0.6,-2 -0.2,0.7 -0.4,1.4 -0.6,2 -0.2,0.6 -0.4,1.2 -0.6,1.7 H 59.9 C 59.6,34.7 59.3,33.9 59,33 58.7,32.1 58.4,31.1 58.1,30 h 1 c 0.1,0.3 0.2,0.7 0.2,1.1 0.1,0.4 0.2,0.8 0.3,1.1 0.1,0.4 0.2,0.7 0.3,1.1 0.1,0.4 0.2,0.7 0.3,0.9 0.1,-0.3 0.2,-0.7 0.3,-1 0.1,-0.4 0.2,-0.7 0.3,-1.1 0.1,-0.4 0.2,-0.7 0.3,-1.1 0.1,-0.4 0.2,-0.7 0.2,-1 h 0.8 c 0.1,0.3 0.1,0.6 0.2,1 0.1,0.4 0.2,0.7 0.3,1.1 0.1,0.4 0.2,0.7 0.3,1.1 0.1,0.4 0.2,0.7 0.3,1 l 0.3,-0.9 c 0.1,-0.3 0.2,-0.7 0.3,-1.1 0.1,-0.4 0.2,-0.8 0.3,-1.1 0.1,-0.4 0.2,-0.7 0.2,-1.1 h 1 c -0.3,1.1 -0.6,2 -0.9,3 -0.3,0.9 -0.6,1.7 -0.9,2.4 z m 3.4,-2.7 c 0,-0.5 0.1,-0.9 0.2,-1.3 0.1,-0.4 0.3,-0.7 0.6,-0.9 0.2,-0.2 0.5,-0.4 0.8,-0.5 0.3,-0.1 0.6,-0.2 0.9,-0.2 0.7,0 1.3,0.2 1.7,0.7 0.4,0.5 0.6,1.1 0.6,2.1 V 33 h -3.7 c 0,0.6 0.2,1 0.5,1.3 0.3,0.3 0.7,0.4 1.3,0.4 0.3,0 0.6,0 0.9,-0.1 0.2,-0.1 0.4,-0.1 0.5,-0.2 l 0.1,0.8 c -0.1,0.1 -0.3,0.1 -0.6,0.2 -0.3,0.1 -0.6,0.1 -1,0.1 -0.5,0 -0.9,-0.1 -1.2,-0.2 -0.3,-0.1 -0.6,-0.3 -0.8,-0.6 -0.2,-0.2 -0.4,-0.5 -0.5,-0.9 -0.2,-0.3 -0.3,-0.7 -0.3,-1.1 z m 3.7,-0.5 c 0,-0.4 -0.1,-0.8 -0.3,-1.1 -0.2,-0.3 -0.5,-0.4 -0.9,-0.4 -0.2,0 -0.4,0 -0.6,0.1 -0.2,0.1 -0.3,0.2 -0.4,0.3 -0.1,0.1 -0.2,0.3 -0.3,0.5 -0.1,0.2 -0.1,0.4 -0.1,0.6 z m 4.5,-2.3 h 0.6 c 0.1,0 0.2,0 0.3,0.1 h 0.2 l -0.2,0.8 c -0.1,0 -0.2,-0.1 -0.4,-0.1 -0.2,0 -0.4,-0.1 -0.7,-0.1 -0.2,0 -0.4,0 -0.5,0.1 -0.2,0 -0.3,0.1 -0.3,0.1 v 4.5 h -1 v -5.2 c 0.2,-0.1 0.5,-0.2 0.9,-0.2 z m 1.8,2.8 c 0,-0.5 0.1,-0.9 0.2,-1.3 0.1,-0.4 0.3,-0.7 0.6,-0.9 0.2,-0.2 0.5,-0.4 0.8,-0.5 0.3,-0.1 0.6,-0.2 0.9,-0.2 0.7,0 1.3,0.2 1.7,0.7 0.4,0.5 0.6,1.1 0.6,2.1 V 33 h -3.7 c 0,0.6 0.2,1 0.5,1.3 0.3,0.3 0.7,0.4 1.3,0.4 0.3,0 0.6,0 0.9,-0.1 0.2,-0.1 0.4,-0.1 0.5,-0.2 l 0.1,0.8 c -0.1,0.1 -0.3,0.1 -0.6,0.2 -0.3,0.1 -0.6,0.1 -1,0.1 -0.5,0 -0.9,-0.1 -1.2,-0.2 -0.3,-0.1 -0.6,-0.3 -0.8,-0.6 -0.2,-0.2 -0.4,-0.5 -0.5,-0.9 -0.2,-0.3 -0.3,-0.7 -0.3,-1.1 z m 3.7,-0.5 c 0,-0.4 -0.1,-0.8 -0.3,-1.1 -0.2,-0.3 -0.5,-0.4 -0.9,-0.4 -0.2,0 -0.4,0 -0.6,0.1 -0.2,0.1 -0.3,0.2 -0.4,0.3 -0.1,0.1 -0.2,0.3 -0.3,0.5 -0.1,0.2 -0.1,0.4 -0.1,0.6 z m 6,-4.7 1,-0.2 v 7.9 c -0.2,0.1 -0.5,0.1 -0.9,0.2 -0.3,0.1 -0.7,0.1 -1.2,0.1 -0.4,0 -0.8,-0.1 -1.1,-0.2 -0.3,-0.1 -0.6,-0.3 -0.9,-0.6 -0.2,-0.2 -0.4,-0.5 -0.5,-0.9 -0.1,-0.3 -0.2,-0.7 -0.2,-1.2 0,-0.4 0.1,-0.8 0.2,-1.1 0.1,-0.3 0.3,-0.6 0.5,-0.9 0.2,-0.2 0.5,-0.4 0.8,-0.6 0.3,-0.1 0.6,-0.2 1,-0.2 0.3,0 0.6,0 0.8,0.1 0.2,0.1 0.4,0.2 0.5,0.2 z m 0,3.6 C 86.1,31 85.9,30.9 85.7,30.8 85.5,30.7 85.2,30.7 85,30.7 c -0.3,0 -0.5,0 -0.7,0.2 -0.2,0.1 -0.4,0.2 -0.5,0.4 l -0.3,0.6 c -0.1,0.2 -0.1,0.5 -0.1,0.8 0,0.6 0.2,1.1 0.5,1.5 0.3,0.3 0.7,0.5 1.2,0.5 h 0.7 c 0.2,0 0.3,-0.1 0.4,-0.1 z m 6.2,-0.9 c 0.1,-0.1 0.3,-0.2 0.5,-0.2 0.2,-0.1 0.5,-0.1 0.8,-0.1 0.4,0 0.7,0.1 1,0.2 0.3,0.1 0.6,0.3 0.8,0.6 0.2,0.2 0.4,0.5 0.5,0.9 0.1,0.3 0.2,0.7 0.2,1.1 0,0.4 -0.1,0.8 -0.2,1.2 -0.1,0.3 -0.3,0.6 -0.5,0.9 -0.2,0.2 -0.5,0.4 -0.9,0.6 -0.3,0.1 -0.7,0.2 -1.1,0.2 -0.4,0 -0.8,0 -1.2,-0.1 -0.3,-0.1 -0.6,-0.1 -0.9,-0.2 v -7.7 l 1,-0.2 z m 0,4.3 c 0.1,0 0.2,0.1 0.4,0.1 h 0.7 c 0.5,0 0.9,-0.2 1.2,-0.5 0.3,-0.3 0.5,-0.8 0.5,-1.5 0,-0.3 0,-0.5 -0.1,-0.8 C 95,31.6 95,31.3 94.8,31.2 94.7,31 94.5,30.9 94.3,30.8 c -0.2,-0.1 -0.4,-0.2 -0.7,-0.2 -0.3,0 -0.5,0 -0.7,0.1 -0.2,0.1 -0.4,0.2 -0.5,0.3 z m 4.6,1.9 c 0.1,0 0.2,0.1 0.3,0.1 h 0.4 c 0.4,0 0.7,-0.1 0.9,-0.3 C 98.8,36 99,35.8 99.2,35.4 98.8,34.6 98.4,33.7 98,32.8 97.6,31.9 97.3,30.9 97.1,30 h 1 c 0.1,0.3 0.2,0.6 0.3,1 0.1,0.4 0.2,0.7 0.4,1.1 0.1,0.4 0.3,0.8 0.4,1.1 0.2,0.4 0.3,0.7 0.5,1.1 0.3,-0.7 0.5,-1.4 0.7,-2.2 0.2,-0.7 0.4,-1.4 0.6,-2.2 h 1 c -0.2,1 -0.5,2 -0.8,2.9 -0.3,0.9 -0.6,1.8 -1,2.6 -0.1,0.3 -0.3,0.6 -0.4,0.8 -0.1,0.2 -0.3,0.4 -0.5,0.6 -0.2,0.1 -0.4,0.3 -0.6,0.3 -0.2,0.1 -0.5,0.1 -0.8,0.1 h -0.4 c -0.1,0 -0.2,0 -0.2,-0.1 0,-0.1 -0.1,0 -0.1,-0.1 z m 11.7,-0.9 c -0.5,0 -1,-0.1 -1.5,-0.2 -0.4,-0.2 -0.8,-0.4 -1.1,-0.7 -0.3,-0.3 -0.5,-0.7 -0.7,-1.2 -0.2,-0.5 -0.2,-1 -0.2,-1.6 0,-0.6 0.1,-1.1 0.3,-1.6 0.2,-0.5 0.4,-0.9 0.8,-1.2 0.3,-0.3 0.7,-0.6 1.1,-0.7 0.4,-0.2 0.9,-0.2 1.4,-0.2 0.3,0 0.6,0 0.8,0.1 0.2,0 0.5,0.1 0.6,0.2 0.2,0.1 0.3,0.1 0.4,0.2 0.1,0.1 0.2,0.1 0.2,0.1 l -0.4,1.1 c -0.2,-0.1 -0.4,-0.2 -0.7,-0.3 -0.3,-0.1 -0.6,-0.1 -1,-0.1 -0.3,0 -0.6,0.1 -0.9,0.2 -0.3,0.1 -0.5,0.3 -0.7,0.5 -0.2,0.2 -0.4,0.5 -0.5,0.8 -0.1,0.3 -0.2,0.7 -0.2,1.1 0,0.4 0,0.7 0.1,1 0.1,0.3 0.2,0.6 0.4,0.8 0.2,0.2 0.4,0.4 0.7,0.5 0.3,0.1 0.6,0.2 1,0.2 0.5,0 0.8,0 1.1,-0.1 0.3,-0.1 0.5,-0.2 0.7,-0.3 l 0.5,0.9 c -0.1,0.1 -0.2,0.1 -0.3,0.2 -0.1,0.1 -0.3,0.1 -0.5,0.2 -0.2,0.1 -0.4,0.1 -0.7,0.1 z m 8.4,-2.8 c 0,0.4 -0.1,0.8 -0.2,1.2 -0.1,0.4 -0.3,0.7 -0.5,0.9 -0.2,0.2 -0.5,0.4 -0.8,0.6 -0.3,0.1 -0.7,0.2 -1.1,0.2 -0.4,0 -0.7,-0.1 -1.1,-0.2 -0.3,-0.1 -0.6,-0.3 -0.8,-0.6 -0.2,-0.2 -0.4,-0.6 -0.5,-0.9 -0.1,-0.4 -0.2,-0.7 -0.2,-1.2 0,-0.4 0.1,-0.8 0.2,-1.2 0.1,-0.3 0.3,-0.6 0.5,-0.9 0.2,-0.2 0.5,-0.4 0.8,-0.6 0.3,-0.1 0.7,-0.2 1,-0.2 0.4,0 0.7,0.1 1.1,0.2 0.3,0.1 0.6,0.3 0.8,0.6 0.2,0.2 0.4,0.5 0.5,0.9 0.1,0.4 0.3,0.7 0.3,1.2 z m -1.3,0 c 0,-0.5 -0.1,-1 -0.3,-1.3 -0.2,-0.3 -0.6,-0.5 -1,-0.5 -0.4,0 -0.7,0.2 -1,0.5 -0.2,0.3 -0.3,0.7 -0.3,1.3 0,0.5 0.1,1 0.3,1.3 0.2,0.3 0.6,0.5 1,0.5 0.4,0 0.7,-0.2 1,-0.5 0.1,-0.4 0.3,-0.8 0.3,-1.3 z m 2.7,-2.6 c 0.2,-0.1 0.6,-0.1 0.9,-0.2 0.4,-0.1 0.8,-0.1 1.3,-0.1 0.4,0 0.8,0.1 1.1,0.2 0.3,0.1 0.5,0.3 0.7,0.5 0.2,0.2 0.3,0.5 0.4,0.8 0.1,0.3 0.1,0.6 0.1,1 v 3.1 h -1.3 v -2.9 c 0,-0.3 0,-0.5 -0.1,-0.7 0,-0.2 -0.1,-0.4 -0.2,-0.5 -0.1,-0.1 -0.2,-0.2 -0.4,-0.3 -0.1,-0.1 -0.3,-0.1 -0.5,-0.1 H 120 c -0.2,0 -0.3,0 -0.4,0.1 v 4.4 h -1.3 v -5.3 z m 6.1,-1.6 1.3,-0.2 v 1.6 h 1.9 v 1 h -1.9 v 2.2 c 0,0.4 0.1,0.7 0.2,0.9 0.1,0.2 0.4,0.3 0.7,0.3 0.2,0 0.4,0 0.6,-0.1 0.2,0 0.3,-0.1 0.4,-0.1 l 0.2,1 c -0.1,0.1 -0.3,0.1 -0.6,0.2 -0.3,0.1 -0.5,0.1 -0.8,0.1 -0.4,0 -0.7,-0.1 -1,-0.2 -0.3,-0.1 -0.5,-0.3 -0.6,-0.5 -0.2,-0.2 -0.3,-0.4 -0.3,-0.7 -0.1,-0.3 -0.1,-0.6 -0.1,-1 z m 5.9,-0.1 c 0,0.2 -0.1,0.4 -0.2,0.6 -0.2,0.1 -0.3,0.2 -0.5,0.2 -0.2,0 -0.4,-0.1 -0.6,-0.2 -0.2,-0.1 -0.2,-0.3 -0.2,-0.6 0,-0.2 0.1,-0.4 0.2,-0.6 0.2,-0.1 0.3,-0.2 0.6,-0.2 0.2,0 0.4,0.1 0.5,0.2 0.1,0.1 0.2,0.3 0.2,0.6 z m -0.2,7 H 129 V 30 h 1.3 z m 1.7,-5.3 c 0.2,-0.1 0.6,-0.1 0.9,-0.2 0.3,-0.1 0.8,-0.1 1.3,-0.1 0.4,0 0.8,0.1 1.1,0.2 0.3,0.1 0.5,0.3 0.7,0.5 0.2,0.2 0.3,0.5 0.4,0.8 0.1,0.3 0.1,0.6 0.1,1 v 3.1 h -1.3 v -2.9 c 0,-0.3 0,-0.5 -0.1,-0.7 0,-0.2 -0.1,-0.4 -0.2,-0.5 -0.1,-0.1 -0.2,-0.2 -0.4,-0.3 -0.1,-0.1 -0.3,-0.1 -0.5,-0.1 h -0.5 c -0.2,0 -0.3,0 -0.4,0.1 v 4.4 h -1.3 v -5.3 z m 10.7,5.1 c -0.2,0.1 -0.6,0.1 -0.9,0.2 -0.4,0.1 -0.8,0.1 -1.3,0.1 -0.4,0 -0.8,-0.1 -1.1,-0.2 -0.3,-0.1 -0.5,-0.3 -0.7,-0.5 -0.2,-0.2 -0.3,-0.5 -0.4,-0.8 -0.1,-0.3 -0.1,-0.6 -0.1,-1 v -3 h 1.3 v 2.8 c 0,0.6 0.1,1 0.3,1.2 0.2,0.2 0.5,0.4 0.9,0.4 h 0.5 c 0.2,0 0.3,0 0.4,-0.1 v -4.4 h 1.3 v 5.3 z m 6.1,0 c -0.2,0.1 -0.6,0.1 -0.9,0.2 -0.4,0.1 -0.8,0.1 -1.3,0.1 -0.4,0 -0.8,-0.1 -1.1,-0.2 -0.3,-0.1 -0.5,-0.3 -0.7,-0.5 -0.2,-0.2 -0.3,-0.5 -0.4,-0.8 -0.1,-0.3 -0.1,-0.6 -0.1,-1 v -3 h 1.3 v 2.8 c 0,0.6 0.1,1 0.3,1.2 0.2,0.2 0.5,0.4 0.9,0.4 h 0.5 c 0.2,0 0.3,0 0.4,-0.1 v -4.4 h 1.3 v 5.3 z m 4.8,-2.7 c 0,-0.6 -0.1,-1 -0.2,-1.2 -0.1,-0.3 -0.4,-0.4 -0.8,-0.4 h -0.5 c -0.2,0 -0.3,0 -0.4,0.1 v 4.4 h -1.3 v -5.3 c 0.2,-0.1 0.6,-0.1 1,-0.2 0.4,-0.1 0.8,-0.1 1.2,-0.1 0.4,0 0.7,0 0.9,0.1 0.2,0.1 0.4,0.2 0.6,0.4 0.1,-0.1 0.2,-0.1 0.3,-0.2 0.1,-0.1 0.2,-0.1 0.4,-0.2 0.1,-0.1 0.3,-0.1 0.5,-0.1 0.2,0 0.3,-0.1 0.5,-0.1 0.4,0 0.8,0.1 1,0.2 0.3,0.1 0.5,0.3 0.6,0.5 0.2,0.2 0.3,0.5 0.3,0.8 0.1,0.3 0.1,0.6 0.1,1 v 3.1 h -1.3 v -2.9 c 0,-0.6 -0.1,-1 -0.2,-1.2 -0.1,-0.3 -0.4,-0.4 -0.8,-0.4 -0.2,0 -0.4,0 -0.6,0.1 -0.2,0.1 -0.3,0.1 -0.4,0.2 0.1,0.2 0.1,0.4 0.1,0.6 v 3.6 h -1.3 v -2.8 z m 12.9,2.9 c -0.1,-0.3 -0.2,-0.6 -0.3,-0.8 l -0.3,-0.9 h -3 l -0.3,0.9 c -0.1,0.3 -0.2,0.6 -0.3,0.8 h -1.4 c 0.3,-0.8 0.5,-1.5 0.8,-2.1 0.3,-0.6 0.5,-1.3 0.7,-1.8 0.2,-0.6 0.5,-1.1 0.7,-1.7 0.2,-0.5 0.5,-1 0.7,-1.6 h 1.2 c 0.2,0.5 0.5,1 0.7,1.6 0.2,0.5 0.5,1.1 0.7,1.7 0.2,0.6 0.5,1.2 0.7,1.8 0.2,0.6 0.5,1.4 0.8,2.1 z m -2.2,-5.8 c -0.2,0.4 -0.3,0.8 -0.5,1.3 -0.2,0.5 -0.4,1.1 -0.6,1.7 h 2.4 c -0.2,-0.6 -0.4,-1.2 -0.6,-1.7 -0.3,-0.5 -0.5,-1 -0.7,-1.3 z m 4.5,0.5 c 0.2,-0.1 0.6,-0.1 0.9,-0.2 0.4,-0.1 0.8,-0.1 1.3,-0.1 0.4,0 0.8,0.1 1.1,0.2 0.3,0.1 0.5,0.3 0.7,0.5 0.2,0.2 0.3,0.5 0.4,0.8 0.1,0.3 0.1,0.6 0.1,1 v 3.1 H 172 v -2.9 c 0,-0.3 0,-0.5 -0.1,-0.7 0,-0.2 -0.1,-0.4 -0.2,-0.5 -0.1,-0.1 -0.2,-0.2 -0.4,-0.3 -0.1,-0.1 -0.3,-0.1 -0.5,-0.1 h -0.5 c -0.2,0 -0.3,0 -0.4,0.1 v 4.4 h -1.3 v -5.3 z m 8,-0.3 c 0.4,0 0.8,0.1 1,0.2 0.3,0.1 0.5,0.2 0.7,0.4 0.2,0.2 0.3,0.4 0.4,0.7 0.1,0.3 0.1,0.6 0.1,0.9 v 3.3 c -0.2,0 -0.5,0.1 -0.9,0.2 -0.4,0.1 -0.8,0.1 -1.3,0.1 -0.3,0 -0.6,0 -0.9,-0.1 -0.3,-0.1 -0.5,-0.2 -0.7,-0.3 -0.2,-0.1 -0.3,-0.3 -0.4,-0.5 -0.1,-0.2 -0.2,-0.5 -0.2,-0.8 0,-0.3 0.1,-0.6 0.2,-0.8 0.1,-0.2 0.3,-0.4 0.5,-0.5 0.2,-0.1 0.4,-0.2 0.7,-0.3 0.3,-0.1 0.6,-0.1 0.9,-0.1 h 0.4 c 0.2,0 0.3,0 0.5,0.1 V 32 c 0,-0.1 0,-0.3 -0.1,-0.4 0,-0.1 -0.1,-0.2 -0.2,-0.3 -0.1,-0.1 -0.2,-0.2 -0.3,-0.2 -0.1,-0.1 -0.3,-0.1 -0.5,-0.1 -0.3,0 -0.6,0 -0.8,0.1 -0.2,0 -0.4,0.1 -0.6,0.1 l -0.2,-1 c 0.2,-0.1 0.4,-0.1 0.7,-0.2 0.3,-0.1 0.7,-0.2 1,-0.2 z m 0.1,4.7 c 0.4,0 0.7,0 0.9,-0.1 V 33 c -0.1,0 -0.2,0 -0.3,-0.1 h -0.8 c -0.1,0 -0.3,0.1 -0.4,0.1 -0.1,0.1 -0.2,0.1 -0.3,0.2 -0.1,0.1 -0.1,0.2 -0.1,0.4 0,0.3 0.1,0.5 0.3,0.6 0.1,0.2 0.4,0.3 0.7,0.3 z m 5.6,1 c -0.4,0 -0.7,0 -0.9,-0.1 L 181,35.1 c -0.1,-0.1 -0.2,-0.3 -0.3,-0.5 -0.1,-0.2 -0.1,-0.5 -0.1,-0.7 v -6.3 l 1.3,-0.2 V 34 c 0,0.1 0.1,0.2 0.1,0.3 0.1,0.1 0.1,0.1 0.3,0.2 0.1,0 0.2,0.1 0.4,0.1 z m 5.8,-5.6 c -0.6,2.1 -1.2,3.9 -1.9,5.6 -0.1,0.3 -0.3,0.6 -0.4,0.8 -0.1,0.2 -0.3,0.4 -0.5,0.6 -0.2,0.1 -0.4,0.3 -0.6,0.3 -0.2,0.1 -0.5,0.1 -0.8,0.1 -0.2,0 -0.4,0 -0.6,-0.1 -0.2,0 -0.3,-0.1 -0.4,-0.1 l 0.2,-1 c 0.3,0.1 0.5,0.1 0.7,0.1 0.3,0 0.6,-0.1 0.8,-0.2 0.2,-0.2 0.3,-0.4 0.5,-0.7 -0.4,-0.8 -0.8,-1.6 -1.1,-2.5 -0.4,-0.9 -0.7,-1.9 -1,-2.9 h 1.3 l 0.3,0.9 c 0.1,0.3 0.2,0.7 0.3,1 0.1,0.3 0.2,0.7 0.4,1 0.1,0.3 0.3,0.7 0.4,1 0.2,-0.6 0.4,-1.3 0.6,-2 0.2,-0.7 0.4,-1.4 0.5,-2 h 1.3 z m 1,-1.4 1.3,-0.2 v 1.6 h 1.9 v 1 h -1.9 v 2.2 c 0,0.4 0.1,0.7 0.2,0.9 0.1,0.2 0.4,0.3 0.7,0.3 0.2,0 0.4,0 0.6,-0.1 0.2,0 0.3,-0.1 0.4,-0.1 l 0.2,1 c -0.1,0.1 -0.3,0.1 -0.6,0.2 -0.2,0.1 -0.5,0.1 -0.8,0.1 -0.4,0 -0.7,-0.1 -1,-0.2 -0.3,-0.1 -0.5,-0.3 -0.6,-0.5 -0.2,-0.2 -0.3,-0.4 -0.3,-0.7 -0.1,-0.3 -0.1,-0.6 -0.1,-1 z m 5.9,-0.1 c 0,0.2 -0.1,0.4 -0.2,0.6 -0.2,0.1 -0.3,0.2 -0.5,0.2 -0.2,0 -0.4,-0.1 -0.6,-0.2 -0.2,-0.1 -0.2,-0.3 -0.2,-0.6 0,-0.2 0.1,-0.4 0.2,-0.6 0.2,-0.1 0.3,-0.2 0.6,-0.2 0.2,0 0.4,0.1 0.5,0.2 0.1,0.1 0.2,0.3 0.2,0.6 z m -0.2,7 h -1.3 V 30 h 1.3 z m 1.4,-2.7 c 0,-0.4 0.1,-0.8 0.2,-1.1 0.1,-0.3 0.3,-0.7 0.5,-0.9 0.2,-0.3 0.5,-0.5 0.8,-0.6 0.3,-0.1 0.7,-0.2 1.1,-0.2 0.5,0 1,0.1 1.5,0.3 l -0.3,1 c -0.1,-0.1 -0.3,-0.1 -0.5,-0.2 -0.2,0 -0.4,-0.1 -0.6,-0.1 -0.5,0 -0.9,0.2 -1.1,0.5 -0.3,0.3 -0.4,0.7 -0.4,1.3 0,0.5 0.1,1 0.4,1.3 0.2,0.3 0.7,0.5 1.2,0.5 0.2,0 0.4,0 0.6,-0.1 0.2,0 0.4,-0.1 0.5,-0.2 l 0.2,1 c -0.1,0.1 -0.3,0.1 -0.6,0.2 -0.3,0.1 -0.6,0.1 -0.9,0.1 -0.5,0 -0.9,-0.1 -1.2,-0.2 -0.3,-0.1 -0.6,-0.3 -0.9,-0.6 -0.2,-0.3 -0.4,-0.6 -0.5,-0.9 0.1,-0.3 0,-0.7 0,-1.1 z m 6.7,1.8 c 0.3,0 0.6,0 0.7,-0.1 0.2,-0.1 0.2,-0.2 0.2,-0.4 0,-0.2 -0.1,-0.3 -0.2,-0.4 l -0.8,-0.4 -0.6,-0.3 c -0.2,-0.1 -0.4,-0.2 -0.5,-0.3 -0.1,-0.1 -0.2,-0.3 -0.3,-0.5 -0.1,-0.2 -0.1,-0.4 -0.1,-0.6 0,-0.5 0.2,-0.9 0.6,-1.2 0.4,-0.3 0.9,-0.4 1.5,-0.4 0.3,0 0.6,0 0.9,0.1 0.3,0.1 0.5,0.1 0.7,0.2 l -0.2,1 c -0.1,-0.1 -0.3,-0.1 -0.5,-0.2 -0.2,-0.1 -0.5,-0.1 -0.7,-0.1 -0.3,0 -0.5,0 -0.6,0.1 -0.2,0.1 -0.2,0.2 -0.2,0.4 v 0.2 c 0,0.1 0.1,0.1 0.2,0.2 0.1,0.1 0.2,0.1 0.3,0.2 0.1,0.1 0.3,0.1 0.5,0.2 0.3,0.1 0.6,0.2 0.8,0.3 0.2,0.1 0.4,0.2 0.5,0.4 0.1,0.1 0.2,0.3 0.3,0.5 0.1,0.2 0.1,0.4 0.1,0.6 0,0.5 -0.2,0.9 -0.6,1.2 -0.4,0.3 -0.9,0.4 -1.6,0.4 -0.5,0 -0.9,0 -1.2,-0.1 -0.3,-0.1 -0.5,-0.1 -0.6,-0.2 l 0.2,-1 c 0.2,0.1 0.4,0.1 0.7,0.2 0.3,0.1 0.2,0 0.5,0 z"
       id="path14"
       inkscape:connector-curvature="0"
       style="fill:#263746" />
  </g>
  <g
     id="g70"
     transform="matrix(0.82144261,0,0,0.82144261,-0.56074096,0.17855739)">
    <path
       class="st0"
       d="m 5.9,23.6 c -0.6,1.2 -1.1,2.4 -1.4,3.6 1.3,0.4 2.6,0.6 4,0.7 0,-1 0.1,-2.1 0.2,-3.1 -1,-0.3 -2,-0.7 -2.8,-1.2 z"
       id="path18"
       inkscape:connector-curvature="0"
       style="fill:#3fae2a" />
    <path
       class="st3"
       d="M 8.5,28.1 H 8.4 C 7.1,28 5.7,27.7 4.4,27.4 H 4.3 V 27.3 C 4.7,26 5.2,24.8 5.8,23.6 l 0.1,-0.1 c 0.9,0.5 1.8,0.9 2.7,1.3 h 0.1 v 0.1 c -0.1,1 -0.2,2 -0.2,3 z M 4.6,27.2 c 1.2,0.3 2.4,0.6 3.7,0.7 0,-1 0.1,-1.9 0.2,-2.8 C 7.6,24.7 6.8,24.3 5.9,23.9 5.4,24.8 4.9,26 4.6,27.2 Z"
       id="path20"
       inkscape:connector-curvature="0"
       style="fill:#ffffff" />
    <path
       class="st0"
       d="m 11.2,10.1 c -0.7,0 -1.5,0.1 -2.3,0.2 0.1,0.8 0.2,1.5 0.4,2.3 0.6,-0.9 1.2,-1.7 1.9,-2.5 z M 4.9,28.5 c 1,1.5 2.3,2.9 3.7,4 C 8.4,31.3 8.4,30.2 8.3,29 7.2,28.9 6.1,28.7 4.9,28.5 Z"
       id="path22"
       inkscape:connector-curvature="0"
       style="fill:#3fae2a" />
    <path
       class="st3"
       d="M 8.8,32.8 8.6,32.6 C 7.2,31.4 5.9,30.1 4.9,28.5 L 4.7,28.2 5,28.3 c 1.1,0.3 2.3,0.5 3.4,0.6 H 8.5 V 29 c 0,1.1 0.1,2.3 0.3,3.5 z M 5.2,28.6 c 0.9,1.3 2,2.5 3.2,3.6 -0.1,-1.1 -0.2,-2.1 -0.2,-3.1 -1,-0.1 -2,-0.2 -3,-0.5 z"
       id="path24"
       inkscape:connector-curvature="0"
       style="fill:#ffffff" />
    <path
       class="st0"
       d="M 14,2 C 12.6,2.5 11.3,3.1 10.1,3.9 11,4 11.9,4.2 12.8,4.5 13.1,3.6 13.5,2.8 14,2 Z m 5.7,-1 c -0.7,0 -1.4,0 -2,0.1 0.9,0.7 1.8,1.4 2.7,2.2 l 0.7,0.6 -0.7,0.7 c -0.6,0.5 -1.1,1.1 -1.7,1.8 l -0.3,0.3 c 0.4,0 0.8,-0.1 1.3,-0.1 6.7,0 12.1,5.4 12.1,12.1 0,6.7 -5.4,12.1 -12.1,12.1 -2.3,0 -4.5,-0.7 -6.3,-1.8 -0.9,0.1 -1.8,0.2 -2.7,0.2 H 9.4 c 0,1.4 0.2,2.8 0.4,4.3 2.8,1.9 6.2,3 9.9,3 9.8,0 17.7,-7.9 17.7,-17.7 C 37.4,8.9 29.5,1 19.7,1 Z"
       id="path26"
       inkscape:connector-curvature="0"
       style="fill:#3fae2a" />
    <path
       class="st0"
       d="M 17.4,5.2 C 17.8,4.8 18.1,4.4 18.5,4 17.7,3.3 16.8,2.6 15.9,2.1 c -0.6,1 -1.1,1.9 -1.5,3 0.8,0.3 1.6,0.6 2.3,1 0.4,-0.6 0.6,-0.8 0.7,-0.9 z m -10,5.3 c -1.3,0.2 -2.6,0.6 -3.8,1 0.5,1.3 1.1,2.5 1.9,3.7 0.8,-0.6 1.7,-1.1 2.6,-1.6 -0.3,-1 -0.5,-2.1 -0.7,-3.1 z"
       id="path28"
       inkscape:connector-curvature="0"
       style="fill:#3fae2a" />
    <path
       class="st3"
       d="M 5.4,15.4 5.3,15.3 C 4.6,14.1 3.9,12.9 3.4,11.6 V 11.5 H 3.5 C 4.7,11 6,10.7 7.3,10.5 h 0.1 v 0.1 c 0.1,1 0.3,2.1 0.6,3.1 v 0.1 H 7.9 C 7,14.3 6.2,14.8 5.4,15.4 Z M 3.8,11.6 C 4.3,12.8 4.9,14 5.5,15 L 7.9,13.5 C 7.7,12.6 7.5,11.6 7.3,10.6 c -1.2,0.3 -2.4,0.6 -3.5,1 z"
       id="path30"
       inkscape:connector-curvature="0"
       style="fill:#ffffff" />
    <path
       class="st0"
       d="m 5.1,17.2 c -1,0.8 -1.8,1.6 -2.7,2.5 0.9,0.8 1.9,1.5 2.9,2.2 0.5,-0.8 1,-1.7 1.6,-2.4 C 6.3,18.7 5.7,18 5.1,17.2 Z"
       id="path32"
       inkscape:connector-curvature="0"
       style="fill:#3fae2a" />
    <path
       class="st3"
       d="M 5.4,22.1 5.3,22 c -1,-0.7 -2,-1.4 -2.9,-2.2 L 2.3,19.7 2.4,19.6 C 3.2,18.7 4.1,17.8 5.1,17 h 0.1 l 0.1,0.1 c 0.6,0.8 1.2,1.6 1.8,2.3 l 0.1,0.1 -0.1,0.1 C 6.5,20.4 6,21.2 5.5,22 Z M 2.6,19.7 c 0.9,0.7 1.8,1.4 2.7,2 C 5.7,20.9 6.2,20.2 6.8,19.4 6.2,18.7 5.6,18 5.1,17.3 4.2,18.1 3.4,18.9 2.6,19.7 Z"
       id="path34"
       inkscape:connector-curvature="0"
       style="fill:#ffffff" />
    <path
       class="st0"
       d="M 9.6,25.3 C 9.5,26.2 9.4,27.1 9.4,28 h 2.7 c -1,-0.7 -1.8,-1.7 -2.5,-2.7 z"
       id="path36"
       inkscape:connector-curvature="0"
       style="fill:#3fae2a" />
    <path
       class="st3"
       d="M 10.7,28.2 H 9.3 v -0.1 c 0,-0.9 0.1,-1.9 0.2,-2.8 v -0.2 l 0.2,0.1 c 0.7,1 1.5,1.9 2.4,2.7 l 0.2,0.2 H 12 c -0.4,0.1 -0.8,0.1 -1.3,0.1 z M 9.5,27.9 h 2.2 c -0.8,-0.7 -1.5,-1.4 -2.1,-2.3 0,0.8 0,1.6 -0.1,2.3 z"
       id="path38"
       inkscape:connector-curvature="0"
       style="fill:#ffffff" />
    <path
       class="st0"
       d="M 12.2,6 C 11.1,5.7 10,5.5 8.8,5.3 8.7,6.5 8.7,7.6 8.8,8.8 9.7,8.7 10.6,8.6 11.5,8.6 11.7,7.7 11.9,6.9 12.2,6 Z m 1.6,0.5 C 13.6,7.2 13.4,7.8 13.2,8.5 14,8 14.8,7.6 15.7,7.3 15.1,7 14.4,6.8 13.8,6.5 Z"
       id="path40"
       inkscape:connector-curvature="0"
       style="fill:#3fae2a" />
    <g
       id="g46">
      <path
         class="st0"
         d="M 2.2,21.1 C 2.4,22.8 2.9,24.5 3.6,26 4,25 4.4,24 4.9,23 3.9,22.4 3,21.8 2.2,21.1 Z"
         id="path42"
         inkscape:connector-curvature="0"
         style="fill:#3fae2a" />
      <path
         class="st3"
         d="M 3.6,26.3 3.5,26 C 2.8,24.4 2.3,22.8 2.1,21.1 V 20.8 L 2.3,21 c 0.8,0.7 1.7,1.3 2.6,1.9 L 5,23 H 4.9 C 4.4,24 4,25 3.7,26 Z M 2.3,21.4 c 0.2,1.5 0.6,2.9 1.2,4.3 C 3.9,24.7 4.2,23.9 4.7,23 3.9,22.5 3.1,22 2.3,21.4 Z"
         id="path44"
         inkscape:connector-curvature="0"
         style="fill:#ffffff" />
    </g>
    <g
       id="g50">
      <path
         class="st0"
         d="M 7.3,6.1 C 6.2,7.1 5.3,8.3 4.6,9.6 5.4,9.4 6.4,9.2 7.3,9 7.2,8 7.2,7.1 7.3,6.1 Z"
         id="path48"
         inkscape:connector-curvature="0"
         style="fill:#3fae2a" />
    </g>
    <g
       id="g56">
      <path
         class="st0"
         d="m 6.2,16.4 c 0.5,0.7 0.9,1.3 1.5,1.9 0,-1.1 0.2,-2.2 0.6,-3.2 -0.8,0.3 -1.4,0.8 -2.1,1.3 z"
         id="path52"
         inkscape:connector-curvature="0"
         style="fill:#3fae2a" />
      <path
         class="st3"
         d="M 7.8,18.5 7.6,18.3 C 7.1,17.7 6.6,17.1 6.1,16.4 L 6,16.3 6.1,16.2 c 0.7,-0.5 1.3,-0.9 2,-1.3 L 8.4,14.7 8.3,15 C 8,16 7.8,17.1 7.8,18.2 Z M 6.4,16.4 7.6,17.9 C 7.7,17 7.8,16.1 8.1,15.3 7.5,15.6 6.9,16 6.4,16.4 Z"
         id="path54"
         inkscape:connector-curvature="0"
         style="fill:#ffffff" />
    </g>
    <g
       id="g62">
      <path
         class="st0"
         d="m 6.4,22.5 c 0.7,0.4 1.5,0.8 2.3,1.1 -0.5,-1 -0.8,-2.1 -0.9,-3.3 -0.5,0.8 -1,1.5 -1.4,2.2 z"
         id="path58"
         inkscape:connector-curvature="0"
         style="fill:#3fae2a" />
      <path
         class="st3"
         d="M 9,23.9 8.7,23.8 C 7.9,23.5 7.1,23.1 6.4,22.7 L 6.3,22.6 6.4,22.5 C 6.8,21.8 7.3,21 7.8,20.4 l 0.1,-0.3 v 0.3 c 0.2,1.1 0.5,2.2 0.9,3.2 z M 6.6,22.5 c 0.6,0.3 1.3,0.7 1.9,0.9 C 8.1,22.5 7.9,21.6 7.7,20.7 7.3,21.3 6.9,21.9 6.6,22.5 Z"
         id="path60"
         inkscape:connector-curvature="0"
         style="fill:#ffffff" />
    </g>
    <g
       id="g68">
      <path
         class="st0"
         d="M 4.4,16 C 3.8,15.1 3.3,14.2 2.9,13.2 2.4,14.8 2.1,16.4 2.1,18.1 2.8,17.4 3.6,16.7 4.4,16 Z"
         id="path64"
         inkscape:connector-curvature="0"
         style="fill:#3fae2a" />
      <path
         class="st3"
         d="m 1.9,18.5 v -0.3 c 0,-1.7 0.3,-3.4 0.8,-5 L 2.9,12.9 3,13.2 c 0.4,1 0.9,1.9 1.5,2.8 l 0.1,0.1 -0.1,0.1 c -0.8,0.7 -1.6,1.4 -2.3,2.1 z m 1,-4.9 C 2.5,15 2.2,16.4 2.2,17.9 2.9,17.2 3.5,16.6 4.3,16 3.7,15.2 3.3,14.4 2.9,13.6 Z"
         id="path66"
         inkscape:connector-curvature="0"
         style="fill:#ffffff" />
    </g>
  </g>
</svg>
