<?xml version="1.0" encoding="utf-8" standalone="no"?>
<!DOCTYPE svg PUBLIC "-//W3C//DTD SVG 1.1//EN"
  "http://www.w3.org/Graphics/SVG/1.1/DTD/svg11.dtd">
<!-- Created with matplotlib (https://matplotlib.org/) -->
<svg height="345.6pt" version="1.1" viewBox="0 0 460.8 345.6" width="460.8pt" xmlns="http://www.w3.org/2000/svg" xmlns:xlink="http://www.w3.org/1999/xlink">
 <defs>
  <style type="text/css">
*{stroke-linecap:butt;stroke-linejoin:round;}
  </style>
 </defs>
 <g id="figure_1">
  <g id="patch_1">
   <path d="M 0 345.6 
L 460.8 345.6 
L 460.8 0 
L 0 0 
z
" style="fill:#ffffff;"/>
  </g>
  <g id="axes_1">
   <g id="patch_2">
    <path d="M 57.6 307.584 
L 414.72 307.584 
L 414.72 41.472 
L 57.6 41.472 
z
" style="fill:#ffffff;"/>
   </g>
   <g id="PathCollection_1">
    <defs>
     <path d="M 0 1.936492 
C 0.513564 1.936492 1.006162 1.732451 1.369306 1.369306 
C 1.732451 1.006162 1.936492 0.513564 1.936492 0 
C 1.936492 -0.513564 1.732451 -1.006162 1.369306 -1.369306 
C 1.006162 -1.732451 0.513564 -1.936492 0 -1.936492 
C -0.513564 -1.936492 -1.006162 -1.732451 -1.369306 -1.369306 
C -1.732451 -1.006162 -1.936492 -0.513564 -1.936492 0 
C -1.936492 0.513564 -1.732451 1.006162 -1.369306 1.369306 
C -1.006162 1.732451 -0.513564 1.936492 0 1.936492 
z
" id="m9f4b84ea23" style="stroke:#808080;"/>
    </defs>
    <g clip-path="url(#p19952da18a)">
     <use style="fill:#808080;stroke:#808080;" x="75.215127" xlink:href="#m9f4b84ea23" y="294.149742"/>
     <use style="fill:#808080;stroke:#808080;" x="75.215127" xlink:href="#m9f4b84ea23" y="61.949023"/>
     <use style="fill:#808080;stroke:#808080;" x="397.104873" xlink:href="#m9f4b84ea23" y="61.949023"/>
     <use style="fill:#808080;stroke:#808080;" x="397.104873" xlink:href="#m9f4b84ea23" y="294.149742"/>
    </g>
   </g>
   <g id="matplotlib.axis_1">
    <g id="xtick_1">
     <g id="line2d_1">
      <defs>
       <path d="M 0 0 
L 0 3.5 
" id="m0bc7637428" style="stroke:#000000;stroke-width:0.8;"/>
      </defs>
      <g>
       <use style="stroke:#000000;stroke-width:0.8;" x="99.18564" xlink:href="#m0bc7637428" y="307.584"/>
      </g>
     </g>
     <g id="text_1">
      <!-- −400 -->
      <defs>
       <path d="M 62.09375 22 
L 6.40625 22 
L 6.40625 28.59375 
L 62.09375 28.59375 
z
" id="STIXGeneral-Regular-8722"/>
       <path d="M 47.296875 16.703125 
L 37 16.703125 
L 37 0 
L 29.203125 0 
L 29.203125 16.703125 
L 1.203125 16.703125 
L 1.203125 23.09375 
L 32.59375 67.59375 
L 37 67.59375 
L 37 23.09375 
L 47.296875 23.09375 
z
M 29.203125 23.09375 
L 29.203125 57.40625 
L 5.203125 23.09375 
z
" id="STIXGeneral-Regular-52"/>
       <path d="M 47.59375 33 
Q 47.59375 26.296875 46.296875 20.34375 
Q 45 14.40625 42.453125 9.40625 
Q 39.90625 4.40625 35.40625 1.5 
Q 30.90625 -1.40625 25 -1.40625 
Q 18.90625 -1.40625 14.296875 1.6875 
Q 9.703125 4.796875 7.203125 10 
Q 4.703125 15.203125 3.546875 21.09375 
Q 2.40625 27 2.40625 33.59375 
Q 2.40625 42.90625 4.703125 50.34375 
Q 7 57.796875 12.34375 62.6875 
Q 17.703125 67.59375 25.40625 67.59375 
Q 35.203125 67.59375 41.390625 58 
Q 47.59375 48.40625 47.59375 33 
z
M 38 32.5 
Q 38 48.296875 34.640625 56.640625 
Q 31.296875 65 24.796875 65 
Q 18.59375 65 15.296875 56.59375 
Q 12 48.203125 12 32.90625 
Q 12 17.5 15.296875 9.34375 
Q 18.59375 1.203125 25 1.203125 
Q 31.296875 1.203125 34.640625 9.34375 
Q 38 17.5 38 32.5 
z
" id="STIXGeneral-Regular-48"/>
      </defs>
      <g transform="translate(88.26064 321.413687)scale(0.1 -0.1)">
       <use xlink:href="#STIXGeneral-Regular-8722"/>
       <use x="68.499985" xlink:href="#STIXGeneral-Regular-52"/>
       <use x="118.499969" xlink:href="#STIXGeneral-Regular-48"/>
       <use x="168.499954" xlink:href="#STIXGeneral-Regular-48"/>
      </g>
     </g>
    </g>
    <g id="xtick_2">
     <g id="line2d_2">
      <g>
       <use style="stroke:#000000;stroke-width:0.8;" x="167.67282" xlink:href="#m0bc7637428" y="307.584"/>
      </g>
     </g>
     <g id="text_2">
      <!-- −200 -->
      <defs>
       <path d="M 47.40625 13.703125 
L 42 0 
L 2.90625 0 
L 2.90625 1.203125 
L 20.703125 20.09375 
Q 27.703125 27.40625 30.703125 33.5 
Q 33.703125 39.59375 33.703125 46.09375 
Q 33.703125 52.796875 30 56.5 
Q 26.296875 60.203125 19.796875 60.203125 
Q 14.40625 60.203125 11.25 57.390625 
Q 8.09375 54.59375 5.09375 47.203125 
L 3 47.703125 
Q 4.703125 57 9.84375 62.296875 
Q 15 67.59375 23.796875 67.59375 
Q 32.09375 67.59375 37.1875 62.59375 
Q 42.296875 57.59375 42.296875 50 
Q 42.296875 38.703125 29.5 25.203125 
L 13 7.59375 
L 36.40625 7.59375 
Q 39.703125 7.59375 41.640625 8.890625 
Q 43.59375 10.203125 46 14.296875 
z
" id="STIXGeneral-Regular-50"/>
      </defs>
      <g transform="translate(156.74782 321.413687)scale(0.1 -0.1)">
       <use xlink:href="#STIXGeneral-Regular-8722"/>
       <use x="68.499985" xlink:href="#STIXGeneral-Regular-50"/>
       <use x="118.499969" xlink:href="#STIXGeneral-Regular-48"/>
       <use x="168.499954" xlink:href="#STIXGeneral-Regular-48"/>
      </g>
     </g>
    </g>
    <g id="xtick_3">
     <g id="line2d_3">
      <g>
       <use style="stroke:#000000;stroke-width:0.8;" x="236.16" xlink:href="#m0bc7637428" y="307.584"/>
      </g>
     </g>
     <g id="text_3">
      <!-- 0 -->
      <g transform="translate(233.66 321.413687)scale(0.1 -0.1)">
       <use xlink:href="#STIXGeneral-Regular-48"/>
      </g>
     </g>
    </g>
    <g id="xtick_4">
     <g id="line2d_4">
      <g>
       <use style="stroke:#000000;stroke-width:0.8;" x="304.64718" xlink:href="#m0bc7637428" y="307.584"/>
      </g>
     </g>
     <g id="text_4">
      <!-- 200 -->
      <g transform="translate(297.14718 321.413687)scale(0.1 -0.1)">
       <use xlink:href="#STIXGeneral-Regular-50"/>
       <use x="49.999985" xlink:href="#STIXGeneral-Regular-48"/>
       <use x="99.999969" xlink:href="#STIXGeneral-Regular-48"/>
      </g>
     </g>
    </g>
    <g id="xtick_5">
     <g id="line2d_5">
      <g>
       <use style="stroke:#000000;stroke-width:0.8;" x="373.13436" xlink:href="#m0bc7637428" y="307.584"/>
      </g>
     </g>
     <g id="text_5">
      <!-- 400 -->
      <g transform="translate(365.63436 321.413687)scale(0.1 -0.1)">
       <use xlink:href="#STIXGeneral-Regular-52"/>
       <use x="49.999985" xlink:href="#STIXGeneral-Regular-48"/>
       <use x="99.999969" xlink:href="#STIXGeneral-Regular-48"/>
      </g>
     </g>
    </g>
   </g>
   <g id="matplotlib.axis_2">
    <g id="ytick_1">
     <g id="line2d_6">
      <defs>
       <path d="M 0 0 
L -3.5 0 
" id="me075c29a07" style="stroke:#000000;stroke-width:0.8;"/>
      </defs>
      <g>
       <use style="stroke:#000000;stroke-width:0.8;" x="57.6" xlink:href="#me075c29a07" y="276.858199"/>
      </g>
     </g>
     <g id="text_6">
      <!-- −200 -->
      <g transform="translate(28.75 280.273043)scale(0.1 -0.1)">
       <use xlink:href="#STIXGeneral-Regular-8722"/>
       <use x="68.499985" xlink:href="#STIXGeneral-Regular-50"/>
       <use x="118.499969" xlink:href="#STIXGeneral-Regular-48"/>
       <use x="168.499954" xlink:href="#STIXGeneral-Regular-48"/>
      </g>
     </g>
    </g>
    <g id="ytick_2">
     <g id="line2d_7">
      <g>
       <use style="stroke:#000000;stroke-width:0.8;" x="57.6" xlink:href="#me075c29a07" y="227.453791"/>
      </g>
     </g>
     <g id="text_7">
      <!-- −100 -->
      <defs>
       <path d="M 39.40625 0 
L 11.796875 0 
L 11.796875 1.5 
Q 17.296875 1.796875 19.296875 3.546875 
Q 21.296875 5.296875 21.296875 9.5 
L 21.296875 54.40625 
Q 21.296875 59.296875 18.296875 59.296875 
Q 16.90625 59.296875 13.796875 58.09375 
L 11.09375 57.09375 
L 11.09375 58.5 
L 29 67.59375 
L 29.90625 67.296875 
L 29.90625 7.59375 
Q 29.90625 4.296875 31.90625 2.890625 
Q 33.90625 1.5 39.40625 1.5 
z
" id="STIXGeneral-Regular-49"/>
      </defs>
      <g transform="translate(28.75 230.868634)scale(0.1 -0.1)">
       <use xlink:href="#STIXGeneral-Regular-8722"/>
       <use x="68.499985" xlink:href="#STIXGeneral-Regular-49"/>
       <use x="118.499969" xlink:href="#STIXGeneral-Regular-48"/>
       <use x="168.499954" xlink:href="#STIXGeneral-Regular-48"/>
      </g>
     </g>
    </g>
    <g id="ytick_3">
     <g id="line2d_8">
      <g>
       <use style="stroke:#000000;stroke-width:0.8;" x="57.6" xlink:href="#me075c29a07" y="178.049382"/>
      </g>
     </g>
     <g id="text_8">
      <!-- 0 -->
      <g transform="translate(45.6 181.464226)scale(0.1 -0.1)">
       <use xlink:href="#STIXGeneral-Regular-48"/>
      </g>
     </g>
    </g>
    <g id="ytick_4">
     <g id="line2d_9">
      <g>
       <use style="stroke:#000000;stroke-width:0.8;" x="57.6" xlink:href="#me075c29a07" y="128.644974"/>
      </g>
     </g>
     <g id="text_9">
      <!-- 100 -->
      <g transform="translate(35.6 132.059818)scale(0.1 -0.1)">
       <use xlink:href="#STIXGeneral-Regular-49"/>
       <use x="49.999985" xlink:href="#STIXGeneral-Regular-48"/>
       <use x="99.999969" xlink:href="#STIXGeneral-Regular-48"/>
      </g>
     </g>
    </g>
    <g id="ytick_5">
     <g id="line2d_10">
      <g>
       <use style="stroke:#000000;stroke-width:0.8;" x="57.6" xlink:href="#me075c29a07" y="79.240566"/>
      </g>
     </g>
     <g id="text_10">
      <!-- 200 -->
      <g transform="translate(35.6 82.65541)scale(0.1 -0.1)">
       <use xlink:href="#STIXGeneral-Regular-50"/>
       <use x="49.999985" xlink:href="#STIXGeneral-Regular-48"/>
       <use x="99.999969" xlink:href="#STIXGeneral-Regular-48"/>
      </g>
     </g>
    </g>
   </g>
   <g id="line2d_11">
    <path clip-path="url(#p19952da18a)" d="M 75.215127 294.149742 
L 75.215127 61.949023 
L 397.104873 61.949023 
L 397.104873 294.149742 
" style="fill:none;stroke:#808080;stroke-linecap:square;stroke-width:1.5;"/>
   </g>
   <g id="line2d_12">
    <path clip-path="url(#p19952da18a)" d="M 100.152519 294.149742 
L 100.152519 291.80428 
L 100.152519 289.458818 
L 100.152519 287.113356 
L 100.152519 284.767895 
L 100.152519 282.422433 
L 100.152519 280.076971 
L 100.152519 277.731509 
L 100.152519 275.386047 
L 100.152519 273.040586 
L 100.152519 270.695124 
L 100.152519 268.349662 
L 100.152519 266.0042 
L 100.152519 263.658738 
L 100.152519 261.313277 
L 100.152519 258.967815 
L 100.152519 256.622353 
L 100.152519 254.276891 
L 100.152519 251.931429 
L 100.152519 249.585967 
L 100.152519 247.240506 
L 100.152519 244.895044 
L 100.152519 242.549582 
L 100.152519 240.20412 
L 100.152519 237.858658 
L 100.152519 235.513197 
L 100.152519 233.167735 
L 100.152519 230.822273 
L 100.152519 228.476811 
L 100.152519 226.131349 
L 100.152519 223.785888 
L 100.152519 221.440426 
L 100.152519 219.094964 
L 100.152519 216.749502 
L 100.152519 214.40404 
L 100.152519 212.058579 
L 100.152519 209.713117 
L 100.152519 207.367655 
L 100.152519 205.022193 
L 100.152519 202.676731 
L 100.152519 200.33127 
L 100.152519 197.985808 
L 100.152519 195.640346 
L 100.152519 193.294884 
L 100.152519 190.949422 
L 100.152519 188.603961 
L 100.152519 186.258499 
L 100.152519 183.913037 
L 100.152519 181.567575 
L 100.152519 179.222113 
L 100.152519 176.876651 
L 100.152519 174.53119 
L 100.152519 172.185728 
L 100.152519 169.840266 
L 100.152519 167.494804 
L 100.152519 165.149342 
L 100.152519 162.803881 
L 100.152519 160.458419 
L 100.152519 158.112957 
L 100.152519 155.767495 
L 100.152519 153.422033 
L 100.152519 151.076572 
L 100.152519 148.73111 
L 100.152519 146.385648 
L 100.152519 144.040186 
L 100.152519 141.694724 
L 100.152519 139.349263 
L 100.152519 137.003801 
L 100.152519 134.658339 
L 100.152519 132.312877 
L 100.152519 129.967415 
L 100.152519 127.621954 
L 100.152519 125.276492 
L 100.152519 122.93103 
L 100.152519 120.585568 
L 100.152519 118.240106 
L 100.152519 115.894645 
L 100.152519 113.549183 
L 100.152519 111.203721 
L 100.152519 108.858259 
L 100.152519 106.512797 
L 100.152519 104.167336 
L 100.152519 101.821874 
L 100.152519 99.476412 
L 100.152519 97.13095 
L 100.152519 94.785488 
L 100.152519 92.440026 
L 100.152519 90.094565 
L 100.152519 87.749103 
L 100.152519 85.403641 
L 100.152519 83.058179 
L 100.152519 80.712717 
L 100.152519 78.367256 
L 100.152519 76.021794 
L 100.152519 73.676332 
L 100.152519 71.33087 
L 100.152519 68.985408 
L 100.152519 66.639947 
L 100.152519 64.294485 
L 100.152519 61.949023 
" style="fill:none;stroke:#1f77b4;stroke-linecap:square;stroke-width:1.5;"/>
   </g>
   <g id="line2d_13">
    <path clip-path="url(#p19952da18a)" d="M 75.215127 53.568 
L 78.466539 53.568 
L 81.717951 53.568 
L 84.969362 53.568 
L 88.220774 53.568 
L 91.472185 53.568 
L 94.723597 53.568 
L 97.975008 53.568 
L 101.22642 53.568 
L 104.477832 53.568 
L 107.729243 53.568 
L 110.980655 53.568 
L 114.232066 53.568 
L 117.483478 53.568 
L 120.734889 53.568 
L 123.986301 53.568 
L 127.237713 53.568 
L 130.489124 53.568 
L 133.740536 53.568 
L 136.991947 53.568 
L 140.243359 53.568 
L 143.49477 53.568 
L 146.746182 53.568 
L 149.997593 53.568 
L 153.249005 53.568 
L 156.500417 53.568 
L 159.751828 53.568 
L 163.00324 53.568 
L 166.254651 53.568 
L 169.506063 53.568 
L 172.757474 53.568 
L 176.008886 53.568 
L 179.260298 53.568 
L 182.511709 53.568 
L 185.763121 53.568 
L 189.014532 53.568 
L 192.265944 53.568 
L 195.517355 53.568 
L 198.768767 53.568 
L 202.020179 53.568 
L 205.27159 53.568 
L 208.523002 53.568 
L 211.774413 53.568 
L 215.025825 53.568 
L 218.277236 53.568 
L 221.528648 53.568 
L 224.78006 53.568 
L 228.031471 53.568 
L 231.282883 53.568 
L 234.534294 53.568 
L 237.785706 53.568 
L 241.037117 53.568 
L 244.288529 53.568 
L 247.53994 53.568 
L 250.791352 53.568 
L 254.042764 53.568 
L 257.294175 53.568 
L 260.545587 53.568 
L 263.796998 53.568 
L 267.04841 53.568 
L 270.299821 53.568 
L 273.551233 53.568 
L 276.802645 53.568 
L 280.054056 53.568 
L 283.305468 53.568 
L 286.556879 53.568 
L 289.808291 53.568 
L 293.059702 53.568 
L 296.311114 53.568 
L 299.562526 53.568 
L 302.813937 53.568 
L 306.065349 53.568 
L 309.31676 53.568 
L 312.568172 53.568 
L 315.819583 53.568 
L 319.070995 53.568 
L 322.322407 53.568 
L 325.573818 53.568 
L 328.82523 53.568 
L 332.076641 53.568 
L 335.328053 53.568 
L 338.579464 53.568 
L 341.830876 53.568 
L 345.082287 53.568 
L 348.333699 53.568 
L 351.585111 53.568 
L 354.836522 53.568 
L 358.087934 53.568 
L 361.339345 53.568 
L 364.590757 53.568 
L 367.842168 53.568 
L 371.09358 53.568 
L 374.344992 53.568 
L 377.596403 53.568 
L 380.847815 53.568 
L 384.099226 53.568 
L 387.350638 53.568 
L 390.602049 53.568 
L 393.853461 53.568 
L 397.104873 53.568 
" style="fill:none;stroke:#ff7f0e;stroke-linecap:square;stroke-width:1.5;"/>
   </g>
   <g id="line2d_14">
    <path clip-path="url(#p19952da18a)" d="M 336.647303 294.149742 
L 336.647303 291.80428 
L 336.647303 289.458818 
L 336.647303 287.113356 
L 336.647303 284.767895 
L 336.647303 282.422433 
L 336.647303 280.076971 
L 336.647303 277.731509 
L 336.647303 275.386047 
L 336.647303 273.040586 
L 336.647303 270.695124 
L 336.647303 268.349662 
L 336.647303 266.0042 
L 336.647303 263.658738 
L 336.647303 261.313277 
L 336.647303 258.967815 
L 336.647303 256.622353 
L 336.647303 254.276891 
L 336.647303 251.931429 
L 336.647303 249.585967 
L 336.647303 247.240506 
L 336.647303 244.895044 
L 336.647303 242.549582 
L 336.647303 240.20412 
L 336.647303 237.858658 
L 336.647303 235.513197 
L 336.647303 233.167735 
L 336.647303 230.822273 
L 336.647303 228.476811 
L 336.647303 226.131349 
L 336.647303 223.785888 
L 336.647303 221.440426 
L 336.647303 219.094964 
L 336.647303 216.749502 
L 336.647303 214.40404 
L 336.647303 212.058579 
L 336.647303 209.713117 
L 336.647303 207.367655 
L 336.647303 205.022193 
L 336.647303 202.676731 
L 336.647303 200.33127 
L 336.647303 197.985808 
L 336.647303 195.640346 
L 336.647303 193.294884 
L 336.647303 190.949422 
L 336.647303 188.603961 
L 336.647303 186.258499 
L 336.647303 183.913037 
L 336.647303 181.567575 
L 336.647303 179.222113 
L 336.647303 176.876651 
L 336.647303 174.53119 
L 336.647303 172.185728 
L 336.647303 169.840266 
L 336.647303 167.494804 
L 336.647303 165.149342 
L 336.647303 162.803881 
L 336.647303 160.458419 
L 336.647303 158.112957 
L 336.647303 155.767495 
L 336.647303 153.422033 
L 336.647303 151.076572 
L 336.647303 148.73111 
L 336.647303 146.385648 
L 336.647303 144.040186 
L 336.647303 141.694724 
L 336.647303 139.349263 
L 336.647303 137.003801 
L 336.647303 134.658339 
L 336.647303 132.312877 
L 336.647303 129.967415 
L 336.647303 127.621954 
L 336.647303 125.276492 
L 336.647303 122.93103 
L 336.647303 120.585568 
L 336.647303 118.240106 
L 336.647303 115.894645 
L 336.647303 113.549183 
L 336.647303 111.203721 
L 336.647303 108.858259 
L 336.647303 106.512797 
L 336.647303 104.167336 
L 336.647303 101.821874 
L 336.647303 99.476412 
L 336.647303 97.13095 
L 336.647303 94.785488 
L 336.647303 92.440026 
L 336.647303 90.094565 
L 336.647303 87.749103 
L 336.647303 85.403641 
L 336.647303 83.058179 
L 336.647303 80.712717 
L 336.647303 78.367256 
L 336.647303 76.021794 
L 336.647303 73.676332 
L 336.647303 71.33087 
L 336.647303 68.985408 
L 336.647303 66.639947 
L 336.647303 64.294485 
L 336.647303 61.949023 
" style="fill:none;stroke:#2ca02c;stroke-linecap:square;stroke-width:1.5;"/>
   </g>
   <g id="patch_3">
    <path d="M 57.6 307.584 
L 57.6 41.472 
" style="fill:none;stroke:#000000;stroke-linecap:square;stroke-linejoin:miter;stroke-width:0.8;"/>
   </g>
   <g id="patch_4">
    <path d="M 414.72 307.584 
L 414.72 41.472 
" style="fill:none;stroke:#000000;stroke-linecap:square;stroke-linejoin:miter;stroke-width:0.8;"/>
   </g>
   <g id="patch_5">
    <path d="M 57.6 307.584 
L 414.72 307.584 
" style="fill:none;stroke:#000000;stroke-linecap:square;stroke-linejoin:miter;stroke-width:0.8;"/>
   </g>
   <g id="patch_6">
    <path d="M 57.6 41.472 
L 414.72 41.472 
" style="fill:none;stroke:#000000;stroke-linecap:square;stroke-linejoin:miter;stroke-width:0.8;"/>
   </g>
  </g>
 </g>
 <defs>
  <clipPath id="p19952da18a">
   <rect height="266.112" width="357.12" x="57.6" y="41.472"/>
  </clipPath>
 </defs>
</svg>
