<?xml version="1.0" encoding="UTF-8" standalone="no"?>
<!-- Created with Inkscape (http://www.inkscape.org/) -->

<svg
   xmlns:dc="http://purl.org/dc/elements/1.1/"
   xmlns:cc="http://creativecommons.org/ns#"
   xmlns:rdf="http://www.w3.org/1999/02/22-rdf-syntax-ns#"
   xmlns:svg="http://www.w3.org/2000/svg"
   xmlns="http://www.w3.org/2000/svg"
   xmlns:sodipodi="http://sodipodi.sourceforge.net/DTD/sodipodi-0.dtd"
   xmlns:inkscape="http://www.inkscape.org/namespaces/inkscape"
   version="1.1"
   id="svg4504"
   xml:space="preserve"
   width="695.12476"
   height="284.03302"
   viewBox="0 0 695.12475 284.033"
   sodipodi:docname="WarrenIdealDesl.svg"
   inkscape:version="0.92.1 r15371"><metadata
     id="metadata4510"><rdf:RDF><cc:Work
         rdf:about=""><dc:format>image/svg+xml</dc:format><dc:type
           rdf:resource="http://purl.org/dc/dcmitype/StillImage" /><dc:title></dc:title></cc:Work></rdf:RDF></metadata><defs
     id="defs4508"><clipPath
       clipPathUnits="userSpaceOnUse"
       id="clipPath4522"><path
         d="m 720,969.602 h 6980.4 v 4010.4 H 720 Z"
         id="path4520"
         inkscape:connector-curvature="0" /></clipPath></defs><sodipodi:namedview
     pagecolor="#ffffff"
     bordercolor="#666666"
     borderopacity="1"
     objecttolerance="10"
     gridtolerance="10"
     guidetolerance="10"
     inkscape:pageopacity="0"
     inkscape:pageshadow="2"
     inkscape:window-width="1680"
     inkscape:window-height="988"
     id="namedview4506"
     showgrid="false"
     fit-margin-left="1"
     fit-margin-top="1"
     fit-margin-right="1"
     fit-margin-bottom="1"
     inkscape:zoom="1.0014546"
     inkscape:cx="353.26497"
     inkscape:cy="95.311125"
     inkscape:window-x="0"
     inkscape:window-y="25"
     inkscape:window-maximized="1"
     inkscape:current-layer="g4512" /><g
     id="g4512"
     inkscape:groupmode="layer"
     inkscape:label="ink_ext_XXXXXX"
     transform="matrix(0,1.3333333,1.3333333,0,-41.840251,-358.54227)"><path
       inkscape:connector-curvature="0"
       id="path4524"
       style="fill:none;stroke:#000000;stroke-width:0.75;stroke-linecap:butt;stroke-linejoin:miter;stroke-miterlimit:10;stroke-dasharray:none;stroke-opacity:1"
       d="m 280.02029,463.18256 h 146.646" /><path
       inkscape:connector-curvature="0"
       id="path4526"
       style="fill:none;stroke:#000000;stroke-width:3.75;stroke-linecap:butt;stroke-linejoin:miter;stroke-miterlimit:10;stroke-dasharray:none;stroke-opacity:1"
       d="m 431.49529,468.01256 v 68.536" /><path
       inkscape:connector-curvature="0"
       id="path4528"
       style="fill:none;stroke:#000000;stroke-width:0.75;stroke-linecap:butt;stroke-linejoin:miter;stroke-miterlimit:10;stroke-dasharray:none;stroke-opacity:1"
       d="m 280.02029,306.78856 h 146.646" /><path
       inkscape:connector-curvature="0"
       id="path4530"
       style="fill:none;stroke:#000000;stroke-width:3.75;stroke-linecap:butt;stroke-linejoin:miter;stroke-miterlimit:10;stroke-dasharray:none;stroke-opacity:1"
       d="m 431.49529,311.61956 v 68.535" /><path
       inkscape:connector-curvature="0"
       id="path4532"
       style="fill:none;stroke:#000000;stroke-width:0.75;stroke-linecap:butt;stroke-linejoin:miter;stroke-miterlimit:10;stroke-dasharray:none;stroke-opacity:1"
       d="m 280.02029,150.39656 h 146.646" /><path
       inkscape:connector-curvature="0"
       id="path4534"
       style="fill:none;stroke:#000000;stroke-width:3.75;stroke-linecap:butt;stroke-linejoin:miter;stroke-miterlimit:10;stroke-dasharray:none;stroke-opacity:1"
       d="m 431.49529,155.22656 v 68.536" /><path
       inkscape:connector-curvature="0"
       id="path4536"
       style="fill:none;stroke:#000000;stroke-width:2.25;stroke-linecap:butt;stroke-linejoin:miter;stroke-miterlimit:10;stroke-dasharray:none;stroke-opacity:1"
       d="m 427.17629,387.14556 -147.666,73.876" /><path
       inkscape:connector-curvature="0"
       id="path4538"
       style="fill:none;stroke:#000000;stroke-width:2.25;stroke-linecap:butt;stroke-linejoin:miter;stroke-miterlimit:10;stroke-dasharray:none;stroke-opacity:1"
       d="m 279.51029,308.94956 147.666,73.875" /><path
       inkscape:connector-curvature="0"
       id="path4540"
       style="fill:none;stroke:#000000;stroke-width:2.25;stroke-linecap:butt;stroke-linejoin:miter;stroke-miterlimit:10;stroke-dasharray:none;stroke-opacity:1"
       d="m 427.17629,230.75356 -147.666,73.875" /><path
       inkscape:connector-curvature="0"
       id="path4542"
       style="fill:none;stroke:#000000;stroke-width:2.25;stroke-linecap:butt;stroke-linejoin:miter;stroke-miterlimit:10;stroke-dasharray:none;stroke-opacity:1"
       d="m 279.51029,152.55656 147.666,73.876" /><path
       inkscape:connector-curvature="0"
       id="path4544"
       style="fill:none;stroke:#000000;stroke-width:3.75;stroke-linecap:butt;stroke-linejoin:miter;stroke-miterlimit:10;stroke-dasharray:none;stroke-opacity:1"
       d="m 279.51029,465.34256 147.666,73.875" /><path
       inkscape:connector-curvature="0"
       id="path4546"
       style="fill:none;stroke:#000000;stroke-width:3.75;stroke-linecap:butt;stroke-linejoin:miter;stroke-miterlimit:10;stroke-dasharray:none;stroke-opacity:1"
       d="m 279.51029,148.23556 147.666,-73.875" /><path
       inkscape:connector-curvature="0"
       id="path4548"
       style="fill:none;stroke:#000000;stroke-width:3.75;stroke-linecap:butt;stroke-linejoin:miter;stroke-miterlimit:10;stroke-dasharray:none;stroke-opacity:1"
       d="m 275.19329,311.61956 v 146.732" /><path
       inkscape:connector-curvature="0"
       id="path4550"
       style="fill:none;stroke:#000000;stroke-width:3.75;stroke-linecap:butt;stroke-linejoin:miter;stroke-miterlimit:10;stroke-dasharray:none;stroke-opacity:1"
       d="m 275.19329,155.22656 v 146.731" /><path
       inkscape:connector-curvature="0"
       id="path4552"
       style="fill:none;stroke:#000000;stroke-width:3.75;stroke-linecap:butt;stroke-linejoin:miter;stroke-miterlimit:10;stroke-dasharray:none;stroke-opacity:1"
       d="m 431.49529,389.81656 v 68.535" /><path
       inkscape:connector-curvature="0"
       id="path4554"
       style="fill:none;stroke:#000000;stroke-width:3.75;stroke-linecap:butt;stroke-linejoin:miter;stroke-miterlimit:10;stroke-dasharray:none;stroke-opacity:1"
       d="m 431.49529,233.42356 v 68.534" /><path
       inkscape:connector-curvature="0"
       id="path4556"
       style="fill:none;stroke:#000000;stroke-width:3.75;stroke-linecap:butt;stroke-linejoin:miter;stroke-miterlimit:10;stroke-dasharray:none;stroke-opacity:1"
       d="m 431.49529,77.03056 v 68.535" /><g
       transform="matrix(0,0.100029,-0.0999711,0,719.63929,-69.88044)"
       id="g4558"
       style="stroke:#000000;stroke-width:14.17322254;stroke-miterlimit:10;stroke-dasharray:none"><path
         inkscape:connector-curvature="0"
         id="path4560"
         style="fill:none;stroke:#000000;stroke-width:14.17322254;stroke-linecap:butt;stroke-linejoin:miter;stroke-miterlimit:10;stroke-dasharray:none;stroke-opacity:1"
         d="m 5377.39,2882.27 c 0,26.67 -21.63,48.3 -48.3,48.3 -26.67,0 -48.3,-21.63 -48.3,-48.3" /></g><g
       transform="matrix(0,0.100029,-0.0999711,0,719.63929,-69.88044)"
       id="g4562"
       style="stroke:#000000;stroke-width:14.17322254;stroke-miterlimit:10;stroke-dasharray:none"><path
         inkscape:connector-curvature="0"
         id="path4564"
         style="fill:none;stroke:#000000;stroke-width:14.17322254;stroke-linecap:butt;stroke-linejoin:miter;stroke-miterlimit:10;stroke-dasharray:none;stroke-opacity:1"
         d="m 5280.79,2882.27 c 0,-26.67 21.63,-48.29 48.3,-48.29 26.67,0 48.3,21.62 48.3,48.29" /></g><g
       transform="matrix(0,0.100029,-0.0999711,0,719.63929,-69.88044)"
       id="g4566"
       style="stroke:#000000;stroke-width:14.17322254;stroke-miterlimit:10;stroke-dasharray:none"><path
         inkscape:connector-curvature="0"
         id="path4568"
         style="fill:none;stroke:#000000;stroke-width:14.17322254;stroke-linecap:butt;stroke-linejoin:miter;stroke-miterlimit:10;stroke-dasharray:none;stroke-opacity:1"
         d="m 3813.9,2882.27 c 0,26.67 -21.62,48.3 -48.3,48.3 -26.67,0 -48.29,-21.63 -48.29,-48.3" /></g><g
       transform="matrix(0,0.100029,-0.0999711,0,719.63929,-69.88044)"
       id="g4570"
       style="stroke:#000000;stroke-width:14.17322254;stroke-miterlimit:10;stroke-dasharray:none"><path
         inkscape:connector-curvature="0"
         id="path4572"
         style="fill:none;stroke:#000000;stroke-width:14.17322254;stroke-linecap:butt;stroke-linejoin:miter;stroke-miterlimit:10;stroke-dasharray:none;stroke-opacity:1"
         d="m 3717.31,2882.27 c 0,-26.67 21.62,-48.29 48.29,-48.29 26.68,0 48.3,21.62 48.3,48.29" /></g><g
       transform="matrix(0,0.100029,-0.0999711,0,719.63929,-69.88044)"
       id="g4574"
       style="stroke:#000000;stroke-width:14.17322254;stroke-miterlimit:10;stroke-dasharray:none"><path
         inkscape:connector-curvature="0"
         id="path4576"
         style="fill:none;stroke:#000000;stroke-width:14.17322254;stroke-linecap:butt;stroke-linejoin:miter;stroke-miterlimit:10;stroke-dasharray:none;stroke-opacity:1"
         d="m 2250.43,2882.27 c 0,26.67 -21.62,48.3 -48.3,48.3 -26.67,0 -48.29,-21.63 -48.29,-48.3" /></g><g
       transform="matrix(0,0.100029,-0.0999711,0,719.63929,-69.88044)"
       id="g4578"
       style="stroke:#000000;stroke-width:14.17322254;stroke-miterlimit:10;stroke-dasharray:none"><path
         inkscape:connector-curvature="0"
         id="path4580"
         style="fill:none;stroke:#000000;stroke-width:14.17322254;stroke-linecap:butt;stroke-linejoin:miter;stroke-miterlimit:10;stroke-dasharray:none;stroke-opacity:1"
         d="m 2153.84,2882.27 c 0,-26.67 21.62,-48.29 48.29,-48.29 26.68,0 48.3,21.62 48.3,48.29" /></g><g
       transform="matrix(0,0.100029,-0.0999711,0,719.63929,-69.88044)"
       id="g4582"
       style="stroke:#000000;stroke-width:14.17322254;stroke-miterlimit:10;stroke-dasharray:none"><path
         inkscape:connector-curvature="0"
         id="path4584"
         style="fill:none;stroke:#000000;stroke-width:14.17322254;stroke-linecap:butt;stroke-linejoin:miter;stroke-miterlimit:10;stroke-dasharray:none;stroke-opacity:1"
         d="m 5377.39,4445.75 c 0,26.67 -21.63,48.29 -48.3,48.29 -26.67,0 -48.3,-21.62 -48.3,-48.29" /></g><g
       transform="matrix(0,0.100029,-0.0999711,0,719.63929,-69.88044)"
       id="g4586"
       style="stroke:#000000;stroke-width:14.17322254;stroke-miterlimit:10;stroke-dasharray:none"><path
         inkscape:connector-curvature="0"
         id="path4588"
         style="fill:none;stroke:#000000;stroke-width:14.17322254;stroke-linecap:butt;stroke-linejoin:miter;stroke-miterlimit:10;stroke-dasharray:none;stroke-opacity:1"
         d="m 5280.79,4445.75 c 0,-26.67 21.63,-48.3 48.3,-48.3 26.67,0 48.3,21.63 48.3,48.3" /></g><g
       transform="matrix(0,0.100029,-0.0999711,0,719.63929,-69.88044)"
       id="g4590"
       style="stroke:#000000;stroke-width:14.17322254;stroke-miterlimit:10;stroke-dasharray:none"><path
         inkscape:connector-curvature="0"
         id="path4592"
         style="fill:none;stroke:#000000;stroke-width:14.17322254;stroke-linecap:butt;stroke-linejoin:miter;stroke-miterlimit:10;stroke-dasharray:none;stroke-opacity:1"
         d="m 3813.9,4445.75 c 0,26.67 -21.62,48.29 -48.3,48.29 -26.67,0 -48.29,-21.62 -48.29,-48.29" /></g><g
       transform="matrix(0,0.100029,-0.0999711,0,719.63929,-69.88044)"
       id="g4594"
       style="stroke:#000000;stroke-width:14.17322254;stroke-miterlimit:10;stroke-dasharray:none"><path
         inkscape:connector-curvature="0"
         id="path4596"
         style="fill:none;stroke:#000000;stroke-width:14.17322254;stroke-linecap:butt;stroke-linejoin:miter;stroke-miterlimit:10;stroke-dasharray:none;stroke-opacity:1"
         d="m 3717.31,4445.75 c 0,-26.67 21.62,-48.3 48.29,-48.3 26.68,0 48.3,21.63 48.3,48.3" /></g><g
       transform="matrix(0,0.100029,-0.0999711,0,719.63929,-69.88044)"
       id="g4598"
       style="stroke:#000000;stroke-width:14.17322254;stroke-miterlimit:10;stroke-dasharray:none"><path
         inkscape:connector-curvature="0"
         id="path4600"
         style="fill:none;stroke:#000000;stroke-width:14.17322254;stroke-linecap:butt;stroke-linejoin:miter;stroke-miterlimit:10;stroke-dasharray:none;stroke-opacity:1"
         d="m 2250.43,4445.75 c 0,26.67 -21.62,48.29 -48.3,48.29 -26.67,0 -48.29,-21.62 -48.29,-48.29" /></g><g
       transform="matrix(0,0.100029,-0.0999711,0,719.63929,-69.88044)"
       id="g4602"
       style="stroke:#000000;stroke-width:14.17322254;stroke-miterlimit:10;stroke-dasharray:none"><path
         inkscape:connector-curvature="0"
         id="path4604"
         style="fill:none;stroke:#000000;stroke-width:14.17322254;stroke-linecap:butt;stroke-linejoin:miter;stroke-miterlimit:10;stroke-dasharray:none;stroke-opacity:1"
         d="m 2153.84,4445.75 c 0,-26.67 21.62,-48.3 48.29,-48.3 26.68,0 48.3,21.63 48.3,48.3" /></g><g
       transform="matrix(0,0.100029,-0.0999711,0,719.63929,-69.88044)"
       id="g4606"
       style="stroke:#000000;stroke-width:14.17322254;stroke-miterlimit:10;stroke-dasharray:none"><path
         inkscape:connector-curvature="0"
         id="path4608"
         style="fill:none;stroke:#000000;stroke-width:14.17322254;stroke-linecap:butt;stroke-linejoin:miter;stroke-miterlimit:10;stroke-dasharray:none;stroke-opacity:1"
         d="m 6159.12,2882.27 c 0,26.67 -21.63,48.3 -48.3,48.3 -26.67,0 -48.3,-21.63 -48.3,-48.3" /></g><g
       transform="matrix(0,0.100029,-0.0999711,0,719.63929,-69.88044)"
       id="g4610"
       style="stroke:#000000;stroke-width:14.17322254;stroke-miterlimit:10;stroke-dasharray:none"><path
         inkscape:connector-curvature="0"
         id="path4612"
         style="fill:none;stroke:#000000;stroke-width:14.17322254;stroke-linecap:butt;stroke-linejoin:miter;stroke-miterlimit:10;stroke-dasharray:none;stroke-opacity:1"
         d="m 6062.52,2882.27 c 0,-26.67 21.63,-48.29 48.3,-48.29 26.67,0 48.3,21.62 48.3,48.29" /></g><g
       id="g4874"><path
         d="m 443.11029,534.66856 -11.615,6.709 11.615,6.711"
         style="fill:#ffffff;stroke:#0000ff;stroke-width:1.5;stroke-linecap:butt;stroke-linejoin:miter;stroke-miterlimit:10;stroke-dasharray:none;stroke-opacity:1"
         id="path4614"
         inkscape:connector-curvature="0" /><path
         d="m 443.11029,531.31356 v 20.129"
         style="fill:none;stroke:#0000ff;stroke-width:1.5;stroke-linecap:butt;stroke-linejoin:miter;stroke-miterlimit:10;stroke-dasharray:none;stroke-opacity:1"
         id="path4616"
         inkscape:connector-curvature="0" /><path
         d="m 443.11029,535.33956 4.024,-4.026"
         style="fill:none;stroke:#0000ff;stroke-width:1.5;stroke-linecap:butt;stroke-linejoin:miter;stroke-miterlimit:10;stroke-dasharray:none;stroke-opacity:1"
         id="path4618"
         inkscape:connector-curvature="0" /><path
         d="m 443.11029,539.36556 4.024,-4.026"
         style="fill:none;stroke:#0000ff;stroke-width:1.5;stroke-linecap:butt;stroke-linejoin:miter;stroke-miterlimit:10;stroke-dasharray:none;stroke-opacity:1"
         id="path4620"
         inkscape:connector-curvature="0" /><path
         d="m 443.11029,543.39156 4.024,-4.026"
         style="fill:none;stroke:#0000ff;stroke-width:1.5;stroke-linecap:butt;stroke-linejoin:miter;stroke-miterlimit:10;stroke-dasharray:none;stroke-opacity:1"
         id="path4622"
         inkscape:connector-curvature="0" /><path
         d="m 443.11029,547.41756 4.024,-4.026"
         style="fill:none;stroke:#0000ff;stroke-width:1.5;stroke-linecap:butt;stroke-linejoin:miter;stroke-miterlimit:10;stroke-dasharray:none;stroke-opacity:1"
         id="path4624"
         inkscape:connector-curvature="0" /><path
         d="m 443.11029,551.44356 4.024,-4.026"
         style="fill:none;stroke:#0000ff;stroke-width:1.5;stroke-linecap:butt;stroke-linejoin:miter;stroke-miterlimit:10;stroke-dasharray:none;stroke-opacity:1"
         id="path4626"
         inkscape:connector-curvature="0" /></g><g
       transform="matrix(0,0.100029,-0.0999711,0,719.63929,-69.88044)"
       id="g4628"
       style="stroke:#000000;stroke-width:14.17322254;stroke-miterlimit:10;stroke-dasharray:none"><path
         inkscape:connector-curvature="0"
         id="path4630"
         style="fill:none;stroke:#000000;stroke-width:14.17322254;stroke-linecap:butt;stroke-linejoin:miter;stroke-miterlimit:10;stroke-dasharray:none;stroke-opacity:1"
         d="m 4595.64,2882.27 c 0,26.67 -21.62,48.3 -48.29,48.3 -26.67,0 -48.3,-21.63 -48.3,-48.3" /></g><g
       transform="matrix(0,0.100029,-0.0999711,0,719.63929,-69.88044)"
       id="g4632"
       style="stroke:#000000;stroke-width:14.17322254;stroke-miterlimit:10;stroke-dasharray:none"><path
         inkscape:connector-curvature="0"
         id="path4634"
         style="fill:none;stroke:#000000;stroke-width:14.17322254;stroke-linecap:butt;stroke-linejoin:miter;stroke-miterlimit:10;stroke-dasharray:none;stroke-opacity:1"
         d="m 4499.05,2882.27 c 0,-26.67 21.63,-48.29 48.3,-48.29 26.67,0 48.29,21.62 48.29,48.29" /></g><g
       transform="matrix(0,0.100029,-0.0999711,0,719.63929,-69.88044)"
       id="g4636"
       style="stroke:#000000;stroke-width:14.17322254;stroke-miterlimit:10;stroke-dasharray:none"><path
         inkscape:connector-curvature="0"
         id="path4638"
         style="fill:none;stroke:#000000;stroke-width:14.17322254;stroke-linecap:butt;stroke-linejoin:miter;stroke-miterlimit:10;stroke-dasharray:none;stroke-opacity:1"
         d="m 3032.16,2882.27 c 0,26.67 -21.63,48.3 -48.3,48.3 -26.67,0 -48.29,-21.63 -48.29,-48.3" /></g><g
       transform="matrix(0,0.100029,-0.0999711,0,719.63929,-69.88044)"
       id="g4640"
       style="stroke:#000000;stroke-width:14.17322254;stroke-miterlimit:10;stroke-dasharray:none"><path
         inkscape:connector-curvature="0"
         id="path4642"
         style="fill:none;stroke:#000000;stroke-width:14.17322254;stroke-linecap:butt;stroke-linejoin:miter;stroke-miterlimit:10;stroke-dasharray:none;stroke-opacity:1"
         d="m 2935.57,2882.27 c 0,-26.67 21.62,-48.29 48.29,-48.29 26.67,0 48.3,21.62 48.3,48.29" /></g><g
       transform="matrix(0,0.100029,-0.0999711,0,719.63929,-69.88044)"
       id="g4644"
       style="fill:#ffffff;stroke:#000000;stroke-width:14.17322254;stroke-miterlimit:10;stroke-dasharray:none"><path
         inkscape:connector-curvature="0"
         id="path4646"
         style="fill:#ffffff;stroke:#000000;stroke-width:14.17322254;stroke-linecap:butt;stroke-linejoin:miter;stroke-miterlimit:10;stroke-dasharray:none;stroke-opacity:1"
         d="m 1468.69,2882.27 c 0,26.67 -21.63,48.3 -48.3,48.3 -26.67,0 -48.29,-21.63 -48.29,-48.3" /></g><g
       transform="matrix(0,0.100029,-0.0999711,0,719.63929,-69.88044)"
       id="g4648"
       style="fill:#ffffff;stroke:#000000;stroke-width:14.17322254;stroke-miterlimit:10;stroke-dasharray:none"><path
         inkscape:connector-curvature="0"
         id="path4650"
         style="fill:#ffffff;stroke:#000000;stroke-width:14.17322254;stroke-linecap:butt;stroke-linejoin:miter;stroke-miterlimit:10;stroke-dasharray:none;stroke-opacity:1"
         d="m 1372.1,2882.27 c 0,-26.67 21.62,-48.29 48.29,-48.29 26.67,0 48.3,21.62 48.3,48.29" /></g><g
       id="g4865"><path
         d="m 443.11029,65.48956 -11.615,6.71 11.615,6.709"
         style="fill:#ffffff;stroke:#0000ff;stroke-width:1.5;stroke-linecap:butt;stroke-linejoin:miter;stroke-miterlimit:10;stroke-dasharray:none;stroke-opacity:1"
         id="path4652"
         inkscape:connector-curvature="0" /><path
         d="m 443.11029,62.13556 v 20.128"
         style="fill:none;stroke:#0000ff;stroke-width:1.5;stroke-linecap:butt;stroke-linejoin:miter;stroke-miterlimit:10;stroke-dasharray:none;stroke-opacity:1"
         id="path4654"
         inkscape:connector-curvature="0" /><path
         d="m 447.13429,62.13556 v 20.128"
         style="fill:none;stroke:#0000ff;stroke-width:1.5;stroke-linecap:butt;stroke-linejoin:miter;stroke-miterlimit:10;stroke-dasharray:none;stroke-opacity:1"
         id="path4656"
         inkscape:connector-curvature="0" /></g><path
       inkscape:connector-curvature="0"
       id="path4526-3"
       style="fill:none;stroke:#808080;stroke-width:1.5;stroke-linecap:butt;stroke-linejoin:miter;stroke-miterlimit:10;stroke-dasharray:3.00000008, 1.50000004;stroke-dashoffset:0;stroke-opacity:1"
       d="m 290.46482,132.11799 0.36214,2.53977 0.36095,2.54096 0.36333,2.53976 0.36215,2.53977 0.36214,2.53976 0.36333,2.53977 0.36214,2.53976 0.36214,2.54096 0.36214,2.53977 0.36095,2.53976 0.36334,2.53977 0.36333,2.53976 0.36095,2.53978 0.36333,2.54095 0.36334,2.53978 0.36094,2.53975 0.36214,2.53977 0.36334,2.54096 0.36095,2.54097 0.36333,2.53975 0.36334,2.54097 0.36094,2.53976 0.36334,2.53976 0.36214,2.53978 0.36094,2.53975 0.36334,2.53977 0.36334,2.54096 0.36094,2.53976 0.36334,2.53978 0.36214,2.53976 0.36214,2.54097 0.36214,2.53975 0.36214,2.53977 0.36214,2.53977 0.36334,2.53976 0.36214,2.53976 0.36214,2.54096 0.36333,2.53977 0.36095,2.53977 0.36214,2.53976 0.36334,2.54097 0.36214,2.53975 0.36214,2.53977 0.36333,2.53978 0.36095,2.53975 0.36333,2.53976 0.36334,2.54097 0.36095,2.53976 0.36214,2.53978 0.36333,2.53975 0.36095,2.53977 0.36333,2.53976 0.36214,2.54096 0.36214,2.53977 0.36334,2.53976 0.36095,2.53977 0.36214,2.54096 0.36333,2.53976 0.36214,2.53977 0.36214,2.53978 0.36334,2.53975" /><path
       inkscape:connector-curvature="0"
       id="path4530-6"
       style="fill:none;stroke:#808080;stroke-width:1.5;stroke-linecap:butt;stroke-linejoin:miter;stroke-miterlimit:10;stroke-dasharray:3.00000008, 1.50000004;stroke-dashoffset:0;stroke-opacity:1"
       d="m 290.46482,132.11799 2.60072,0.99439 2.60311,0.9932 2.60192,0.99441 2.60311,0.99438 2.60191,0.99439 2.60311,0.9944 2.60192,0.9932 2.60311,0.99438 2.60191,0.9944 2.6019,0.99319 2.60311,0.9944 2.60192,0.99439 2.60311,0.99439 2.60191,0.99439 2.60311,0.9932 2.60192,0.9944 2.60311,0.99439 2.60191,0.9932 2.60311,0.99439 2.60192,0.99439 2.60191,0.9932 2.60192,0.99559 2.60311,0.99439 2.60191,0.9932 2.60311,0.99319 2.60192,0.9944 2.60311,0.99439 2.60191,0.9932 2.60192,0.99439 2.60191,0.99559 2.60431,0.9944 2.60072,0.9932 2.60311,0.9932 2.60191,0.99438 2.60311,0.99439 2.60193,0.9932 2.60311,0.9944 2.6019,0.99439 2.60311,0.99439 2.60073,0.9944 2.60311,0.99438 2.60191,0.9932 2.60311,0.99439 2.60191,0.9932 2.60311,0.99441 2.60193,0.99438 2.60311,0.9932 2.6019,0.9956 2.60311,0.99438 2.60073,0.99319 2.60311,0.9944 2.6019,0.9944 2.60311,0.9932 2.60192,0.9932 2.60311,0.99438 2.60193,0.9956 2.60311,0.99438 2.6019,0.9932 2.60311,0.99439 2.60073,0.9932 2.60311,0.9944 2.6019,0.99438 2.60311,0.9932 2.60193,0.99439 2.60311,0.99441 2.6019,0.99438 2.60311,0.99439 2.60074,0.9932 2.60429,0.9944" /><path
       inkscape:connector-curvature="0"
       id="path4534-7"
       style="fill:none;stroke:#808080;stroke-width:1.5;stroke-linecap:butt;stroke-linejoin:miter;stroke-miterlimit:10;stroke-dasharray:3.00000008, 1.50000004;stroke-dashoffset:0;stroke-opacity:1"
       d="m 470.0304,200.70959 -2.2816,1.25254 -2.28281,1.25018 -2.2828,1.25254 -2.2816,1.25017 -2.28279,1.25254 -2.28162,1.25018 -2.28159,1.25254 -2.28161,1.25135 -2.28162,1.25018 -2.28399,1.25254 -2.28161,1.25136 -2.28159,1.25135 -2.28162,1.25136 -2.28279,1.25136 -2.28162,1.25255 -2.2816,1.25016 -2.284,1.25256 -2.28159,1.25016 -2.28162,1.25255 -2.28161,1.25016 -2.28159,1.25255 -2.28162,1.25136 -2.28399,1.25136 -2.28161,1.25136 -2.28159,1.25135 -2.28281,1.25257 -2.2816,1.25015 -2.28162,1.25136 -2.2816,1.25256 -2.2828,1.25015 -2.28161,1.25256 -2.2828,1.25136 -2.2816,1.25136 -2.2816,1.25015 -2.28281,1.25256 -2.28159,1.25254 -2.28282,1.25018 -2.28159,1.25136 -2.28162,1.25135 -2.2816,1.25254 -2.2828,1.25018 -2.28161,1.25254 -2.28161,1.25135 -2.28399,1.25018 -2.28161,1.25254 -2.2816,1.25136 -2.28161,1.25135 -2.2816,1.25136 -2.28161,1.25136 -2.284,1.25255 -2.2816,1.25016 -2.28161,1.25256 -2.2828,1.25016 -2.2816,1.25255 -2.28161,1.25016 -2.2816,1.25255 -2.284,1.25136 -2.28161,1.25136 -2.2816,1.25136 -2.28161,1.25135 -2.2816,1.25136 -2.2828,1.25136 -2.28161,1.25136 -2.2828,1.25255 -2.2828,1.25136 -2.28161,1.25135 -2.2816,1.25016 -2.28159,1.25256 -2.28161,1.25016" /><path
       inkscape:connector-curvature="0"
       id="path4538-5"
       style="fill:none;stroke:#808080;stroke-width:1.5;stroke-linecap:butt;stroke-linejoin:miter;stroke-miterlimit:10;stroke-dasharray:3.00000008, 1.50000004;stroke-dashoffset:0;stroke-opacity:1"
       d="m 312.56855,287.05921 -0.36334,2.54097 -0.36214,2.54095 -0.36214,2.53978 -0.36333,2.53975 -0.36214,2.54097 -0.36095,2.53976 -0.36334,2.53976 -0.36214,2.53978 -0.36214,2.54095 -0.36333,2.53977 -0.36095,2.53976 -0.36333,2.53976 -0.36214,2.53978 -0.36095,2.53975 -0.36334,2.54098 -0.36333,2.53975 -0.36095,2.53976 -0.36333,2.53978 -0.36214,2.53976 -0.36214,2.53976 -0.36334,2.54096 -0.36214,2.53977 -0.36095,2.53977 -0.36333,2.53976 -0.36214,2.54097 -0.36214,2.53975 -0.36334,2.53977 -0.36214,2.53978 -0.36214,2.53975 -0.36214,2.53976 -0.36214,2.54096 -0.36214,2.53977 -0.36334,2.53978 -0.36094,2.53975 -0.36334,2.54097 -0.36334,2.53976 -0.36094,2.53976 -0.36214,2.53977 -0.36334,2.53976 -0.36094,2.53977 -0.36334,2.54096 -0.36333,2.53976 -0.36095,2.53977 -0.36334,2.54096 -0.36214,2.54097 -0.36094,2.53975 -0.36334,2.53977 -0.36333,2.54096 -0.36095,2.53976 -0.36333,2.53978 -0.36334,2.53976 -0.36095,2.53976 -0.36214,2.53978 -0.36214,2.54095 -0.36214,2.53977 -0.36333,2.53976 -0.36214,2.53976 -0.36215,2.53978 -0.36333,2.53975 -0.36095,2.54097 -0.36214,2.53976" /><path
       inkscape:connector-curvature="0"
       id="path4542-3"
       style="fill:none;stroke:#808080;stroke-width:1.5;stroke-linecap:butt;stroke-linejoin:miter;stroke-miterlimit:10;stroke-dasharray:3.00000008, 1.50000004;stroke-dashoffset:0;stroke-opacity:1"
       d="m 312.56855,287.05921 2.28161,1.25255 2.28159,1.25257 2.2816,1.25015 2.28161,1.25135 2.2828,1.25136 2.2828,1.25257 2.28161,1.25015 2.2828,1.25256 2.2816,1.25136 2.28161,1.25135 2.2816,1.25136 2.28161,1.25136 2.284,1.25136 2.2816,1.25135 2.28161,1.25136 2.2816,1.25254 2.2828,1.25018 2.28161,1.25254 2.2816,1.25017 2.284,1.25254 2.28161,1.25017 2.2816,1.25255 2.28161,1.25135 2.2816,1.25136 2.28161,1.25255 2.28399,1.25016 2.28161,1.25136 2.28161,1.25136 2.2828,1.25136 2.2816,1.25255 2.28162,1.25136 2.28159,1.25135 2.28282,1.25017 2.28159,1.25255 2.28281,1.25016 2.2816,1.25255 2.2816,1.25257 2.2828,1.25015 2.28161,1.25256 2.2828,1.25015 2.2816,1.25257 2.28162,1.25015 2.2816,1.25135 2.28281,1.25257 2.28159,1.25136 2.28161,1.25135 2.28399,1.25136 2.28162,1.25136 2.28159,1.25015 2.28161,1.25256 2.28162,1.25254 2.28159,1.25018 2.284,1.25254 2.2816,1.25017 2.28162,1.25254 2.28279,1.25018 2.28162,1.25254 2.28159,1.25135 2.28161,1.25136 2.28399,1.25255 2.28162,1.25016 2.28161,1.25136 2.28159,1.25136 2.28162,1.25136 2.28279,1.25255 2.2816,1.25016 2.2828,1.25255 2.28281,1.25017 2.2816,1.25255" /><path
       inkscape:connector-curvature="0"
       id="path4546-5"
       style="fill:none;stroke:#808080;stroke-width:1.5;stroke-linecap:butt;stroke-linejoin:miter;stroke-miterlimit:10;stroke-dasharray:3.00000008, 1.50000004;stroke-dashoffset:0;stroke-opacity:1"
       d="M 312.56855,287.05921 H 480.43686" /><path
       inkscape:connector-curvature="0"
       id="path4550-6"
       style="fill:none;stroke:#808080;stroke-width:1.5;stroke-linecap:butt;stroke-linejoin:miter;stroke-miterlimit:10;stroke-dasharray:3.00000008, 1.50000004;stroke-dashoffset:0;stroke-opacity:1"
       d="m 470.0304,373.41123 -2.60429,0.9944 -2.60074,0.9932 -2.60311,0.99438 -2.6019,0.99439 -2.60311,0.99441 -2.60193,0.99438 -2.60311,0.9932 -2.6019,0.99439 -2.60311,0.99439 -2.60073,0.9932 -2.60311,0.99439 -2.6019,0.9932 -2.60311,0.99439 -2.60193,0.99559 -2.60311,0.99439 -2.60192,0.9932 -2.60311,0.9932 -2.6019,0.99439 -2.60311,0.9944 -2.60073,0.99319 -2.60311,0.9944 -2.6019,0.99439 -2.60311,0.99439 -2.60193,0.99439 -2.60311,0.9944 -2.60191,0.99319 -2.60311,0.9944 -2.60191,0.9932 -2.60311,0.99439 -2.60073,0.99439 -2.60311,0.9932 -2.6019,0.99559 -2.60311,0.99439 -2.60193,0.9932 -2.60311,0.9944 -2.60191,0.9932 -2.60311,0.99438 -2.60072,0.9932 -2.60431,0.99439 -2.60191,0.99559 -2.60192,0.99439 -2.60191,0.9932 -2.60311,0.9944 -2.60192,0.99438 -2.60311,0.9932 -2.60191,0.9932 -2.60311,0.99439 -2.60192,0.99441 -2.60191,0.99438 -2.60192,0.99439 -2.60311,0.99441 -2.60191,0.99319 -2.60311,0.99438 -2.60192,0.9944 -2.60311,0.99319 -2.60191,0.99441 -2.60311,0.9932 -2.60192,0.99557 -2.60311,0.99441 -2.6019,0.9932 -2.60191,0.99438 -2.60311,0.99439 -2.60192,0.9932 -2.60311,0.9944 -2.60191,0.99438 -2.60311,0.99439 -2.60192,0.99441 -2.60311,0.9932 -2.60072,0.99438" /><path
       inkscape:connector-curvature="0"
       id="path4554-2"
       style="fill:none;stroke:#808080;stroke-width:1.5;stroke-linecap:butt;stroke-linejoin:miter;stroke-miterlimit:10;stroke-dasharray:3.00000008, 1.50000004;stroke-dashoffset:0;stroke-opacity:1"
       d="m 290.46482,132.11799 2.04257,-1.4402 2.04377,-1.44018 2.04376,-1.43901 2.04376,-1.44259 2.04616,-1.43899 2.04257,-1.44021 2.04496,-1.44019 2.04257,-1.4402 2.04495,-1.439 2.04377,-1.44139 2.04257,-1.4402 2.04496,-1.44019 2.04494,-1.4402 2.04377,-1.4402 2.04376,-1.44139 2.04377,-1.439 2.04376,-1.4402 2.04376,-1.44019 2.04377,-1.4402 2.04376,-1.439 2.04496,-1.44259 2.04377,-1.439 2.04376,-1.440194 2.04376,-1.440196 2.04377,-1.440197 2.04376,-1.440196 2.04377,-1.440196 2.04376,-1.440196 2.04496,-1.440197 2.04376,-1.440196 2.04377,-1.440196 2.04376,-1.440197 2.04377,-1.440196 2.04376,-1.441391 2.04376,-1.439002 2.04377,-1.440196 2.04496,-1.440196 2.04376,-1.44138 2.04376,-1.440196 2.04377,-1.439001 2.04496,-1.440196 2.04257,-1.440197 2.04376,-1.440196 2.04378,-1.441391 2.04376,-1.440197 2.04614,-1.439001 2.04257,-1.440196 2.04496,-1.440197 2.04257,-1.440196 2.04496,-1.441391 2.04376,-1.440197 2.04257,-1.439001 2.04496,-1.440196 2.04497,-1.440196 2.04377,-1.440197 2.04376,-1.441391 2.04377,-1.439001 2.04376,-1.440197 2.04376,-1.440196 2.04377,-1.440196 2.04376,-1.440196 2.04495,-1.441392 2.04376,-1.439001 2.04377,-1.441392 2.04376,-1.439001 2.04376,-1.440196 2.04377,-1.441391 2.04376,-1.440197 2.04377,-1.440196" /><path
       inkscape:connector-curvature="0"
       id="path4558"
       style="fill:none;stroke:#808080;stroke-width:1.5;stroke-linecap:butt;stroke-linejoin:miter;stroke-miterlimit:10;stroke-dasharray:3.00000008, 1.50000004;stroke-dashoffset:0;stroke-opacity:1"
       d="m 431.49529,32.743263 0.79001,2.709481 0.78882,2.709482 0.79122,2.709481 0.78763,2.709481 0.78883,2.708286 0.79,2.709482 0.79002,2.709481 0.78882,2.708286 0.79003,2.708286 0.78882,2.709482 0.79,2.709481 0.78882,2.709482 0.78882,2.709481 0.79002,2.708286 0.78882,2.709481 0.79121,2.709482 0.78764,2.709469 0.78882,2.709481 0.7912,2.708287 0.78882,2.708286 0.78882,2.709481 0.79003,2.709481 0.78882,2.708287 0.79002,2.709481 0.78882,2.709483 0.78882,2.70948 0.79001,2.70948 0.78882,2.70829 0.78882,2.70948 0.79003,2.70948 0.78882,2.70948" /><path
       inkscape:connector-curvature="0"
       id="path4562"
       style="fill:none;stroke:#808080;stroke-width:1.5;stroke-linecap:butt;stroke-linejoin:miter;stroke-miterlimit:10;stroke-dasharray:3.00000008, 1.50000004;stroke-dashoffset:0;stroke-opacity:1"
       d="m 290.46482,132.11799 2.71307,-0.25217 2.71187,-0.25339 2.71307,-0.25099 2.71426,-0.25338 2.71307,-0.25218 2.71187,-0.25099 2.71426,-0.25217 2.71307,-0.25339 2.71187,-0.25099 2.71425,-0.25338 2.71307,-0.25219 2.71426,-0.25217 2.71187,-0.25219 2.71307,-0.25337 2.71426,-0.2522 2.71307,-0.25218 2.71187,-0.25217 2.71307,-0.2522 2.71426,-0.25336 2.71187,-0.25099 2.71426,-0.2522 2.71307,-0.25218 2.71306,-0.25217 2.71188,-0.2522 2.71426,-0.25337 2.71307,-0.25219 2.71426,-0.25219 2.71187,-0.25217 2.71426,-0.25339 2.71307,-0.25099 2.71187,-0.25338 2.71307,-0.25218 2.71427,-0.25099 2.71306,-0.25217 2.71188,-0.25339 2.71426,-0.25099 2.71306,-0.25338 2.71306,-0.25218 2.71308,-0.25217 2.71306,-0.2522 2.71426,-0.25338 2.71188,-0.25218 2.71306,-0.25219 2.71426,-0.25218 2.71307,-0.25218 2.71187,-0.25338 2.71426,-0.25099 2.71307,-0.25218 2.71426,-0.25219 2.71187,-0.25218 2.71307,-0.25219 2.71308,-0.25338 2.71186,-0.25218 2.71426,-0.25218 2.71308,-0.25219 2.71426,-0.25338 2.71186,-0.25098 2.71308,-0.25338 2.71426,-0.25219 2.71306,-0.25218 2.71188,-0.25099" /><path
       inkscape:connector-curvature="0"
       id="path4566"
       style="fill:none;stroke:#808080;stroke-width:1.5;stroke-linecap:butt;stroke-linejoin:miter;stroke-miterlimit:10;stroke-dasharray:3.00000008, 1.50000004;stroke-dashoffset:0;stroke-opacity:1"
       d="m 455.96549,116.72761 0.45536,2.70709 0.45298,2.70948 0.45296,2.70948 0.45299,2.7095 0.45536,2.70947 0.45298,2.7083 0.45296,2.70946 0.45418,2.70949 0.45417,2.70948 0.45298,2.70948 0.45536,2.70829 0.45178,2.70948 0.45416,2.70948 0.45417,2.70828 0.45418,2.70829 0.45178,2.70948 0.45536,2.70949 0.45297,2.70947 0.45297,2.70949 0.45417,2.70828 0.45418,2.70948 0.45297,2.7095 0.45297,2.70947 0.45537,2.70948 0.45298,2.70828 0.45296,2.7083 0.45537,2.70947 0.45297,2.70948 0.45299,2.70829 0.45416,2.70948 0.45417,2.70949" /><path
       inkscape:connector-curvature="0"
       id="path4570"
       style="fill:none;stroke:#808080;stroke-width:1.5;stroke-linecap:butt;stroke-linejoin:miter;stroke-miterlimit:10;stroke-dasharray:3.00000008, 1.50000004;stroke-dashoffset:0;stroke-opacity:1"
       d="m 470.0304,200.70959 0.33465,2.78477 0.33585,2.78597 0.33585,2.78718 0.33584,2.78477 0.33466,2.78478 0.33584,2.78597 0.33584,2.78479 0.33586,2.78597 0.33584,2.78598 0.33704,2.78597 0.33466,2.78476 0.33584,2.78478 0.33584,2.78598 0.33586,2.78479 0.33584,2.78715 0.33584,2.78479 0.33586,2.78477 0.33464,2.78597 0.33586,2.78478 0.33583,2.78717 0.33585,2.78477 0.33465,2.78598 0.33585,2.78478 0.33704,2.78477 0.33586,2.78598 0.33583,2.78597 0.33585,2.78597 0.33465,2.78478 0.33585,2.78478 0.33586,2.78597 0.33583,2.78478" /><path
       inkscape:connector-curvature="0"
       id="path4574"
       style="fill:none;stroke:#808080;stroke-width:1.5;stroke-linecap:butt;stroke-linejoin:miter;stroke-miterlimit:10;stroke-dasharray:3.00000008, 1.50000004;stroke-dashoffset:0;stroke-opacity:1"
       d="m 480.43686,287.05921 -0.33583,2.78717 -0.33586,2.78597 -0.33585,2.78478 -0.33465,2.78479 -0.33585,2.78597 -0.33583,2.78597 -0.33586,2.78598 -0.33704,2.78476 -0.33585,2.78598 -0.33465,2.78477 -0.33585,2.78479 -0.33583,2.78716 -0.33586,2.78479 -0.33464,2.78597 -0.33586,2.78477 -0.33584,2.78478 -0.33584,2.78597 -0.33586,2.78597 -0.33584,2.78598 -0.33584,2.78479 -0.33466,2.78597 -0.33704,2.78477 -0.33584,2.78597 -0.33586,2.78597 -0.33584,2.78478 -0.33584,2.78597 -0.33466,2.78479 -0.33584,2.78477 -0.33585,2.78718 -0.33585,2.78597 -0.33465,2.78477" /><path
       inkscape:connector-curvature="0"
       id="path4578"
       style="fill:none;stroke:#808080;stroke-width:1.5;stroke-linecap:butt;stroke-linejoin:miter;stroke-miterlimit:10;stroke-dasharray:3.00000008, 1.50000004;stroke-dashoffset:0;stroke-opacity:1"
       d="m 470.0304,373.41123 -0.45417,2.70948 -0.45416,2.70949 -0.45299,2.70828 -0.45297,2.70948 -0.45537,2.70948 -0.45296,2.70829 -0.45298,2.70828 -0.45537,2.70948 -0.45297,2.70948 -0.45297,2.70949 -0.45418,2.70948 -0.45417,2.7083 -0.45297,2.70947 -0.45297,2.70948 -0.45536,2.70949 -0.45178,2.70947 -0.45418,2.7083 -0.45417,2.70827 -0.45416,2.70949 -0.45178,2.70947 -0.45536,2.7083 -0.45298,2.70947 -0.45417,2.70948 -0.45418,2.7095 -0.45296,2.70947 -0.45298,2.70829 -0.45536,2.70947 -0.45299,2.70948 -0.45296,2.7095 -0.45298,2.70709 -0.45536,2.70947" /><path
       inkscape:connector-curvature="0"
       id="path4582"
       style="fill:none;stroke:#808080;stroke-width:1.5;stroke-linecap:butt;stroke-linejoin:miter;stroke-miterlimit:10;stroke-dasharray:3.00000008, 1.50000004;stroke-dashoffset:0;stroke-opacity:1"
       d="m 290.46482,442.00282 2.04257,1.44021 2.04377,1.44018 2.04376,1.43901 2.04376,1.44258 2.04616,1.439 2.04257,1.4402 2.04496,1.4402 2.04257,1.44019 2.04495,1.43901 2.04377,1.44139 2.04257,1.44019 2.04496,1.44019 2.04494,1.44021 2.04377,1.43899 2.04376,1.44021 2.04377,1.44139 2.04376,1.44019 2.04376,1.44019 2.04377,1.44021 2.04376,1.43899 2.04496,1.44259 2.04377,1.43901 2.04376,1.44018 2.04376,1.4402 2.04377,1.44021 2.04376,1.44018 2.04377,1.44139 2.04376,1.43902 2.04496,1.44018 2.04376,1.4402 2.04377,1.44021 2.04376,1.44018 2.04377,1.4402 2.04376,1.44139 2.04376,1.439 2.04377,1.4402 2.04496,1.4402 2.04376,1.44019 2.04376,1.44139 2.04377,1.439 2.04496,1.4402 2.04257,1.44019 2.04376,1.4402 2.04378,1.439 2.04376,1.44259 2.04614,1.439 2.04257,1.44019 2.04496,1.4402 2.04257,1.4402 2.04496,1.44139 2.04376,1.44019 2.04257,1.43901 2.04496,1.44019 2.04497,1.4402 2.04377,1.44019 2.04376,1.4414 2.04377,1.44019 2.04376,1.439 2.04376,1.4402 2.04377,1.44021 2.04376,1.44018 2.04495,1.44139 2.04376,1.43902 2.04377,1.44139 2.04376,1.43899 2.04376,1.44021 2.04377,1.44018 2.04376,1.44139 2.04377,1.4402" /><path
       inkscape:connector-curvature="0"
       id="path4586"
       style="fill:none;stroke:#808080;stroke-width:1.5;stroke-linecap:butt;stroke-linejoin:miter;stroke-miterlimit:10;stroke-dasharray:3.00000008, 1.50000004;stroke-dashoffset:0;stroke-opacity:1"
       d="m 455.96549,457.3932 -0.78882,2.70948 -0.79003,2.70949 -0.78882,2.70947 -0.78882,2.7083 -0.79001,2.70947 -0.78882,2.70948 -0.78882,2.70949 -0.79002,2.70947 -0.78882,2.7083 -0.79003,2.70947 -0.78882,2.7083 -0.78882,2.70947 -0.7912,2.7083 -0.78882,2.70947 -0.78764,2.70948 -0.79121,2.70948 -0.78882,2.70948 -0.79002,2.70829 -0.78882,2.70948 -0.78882,2.70948 -0.79,2.70948 -0.78882,2.70948 -0.79003,2.70709 -0.78882,2.7095 -0.79002,2.70947 -0.79,2.70948 -0.78883,2.70828 -0.78763,2.70948 -0.79122,2.7095 -0.78882,2.70947 -0.79001,2.70948" /><path
       inkscape:connector-curvature="0"
       id="path4590"
       style="fill:none;stroke:#808080;stroke-width:1.5;stroke-linecap:butt;stroke-linejoin:miter;stroke-miterlimit:10;stroke-dasharray:3.00000008, 1.50000004;stroke-dashoffset:0;stroke-opacity:1"
       d="m 290.46482,442.00282 2.71307,0.25218 2.71187,0.25338 2.71307,0.25099 2.71426,0.25339 2.71307,0.25217 2.71187,0.25099 2.71426,0.25218 2.71307,0.25338 2.71187,0.25099 2.71425,0.25339 2.71307,0.25217 2.71426,0.25219 2.71187,0.25219 2.71307,0.25337 2.71426,0.2522 2.71307,0.25217 2.71187,0.25218 2.71307,0.2522 2.71426,0.25099 2.71187,0.25336 2.71426,0.2522 2.71307,0.25217 2.71306,0.25218 2.71188,0.2522 2.71426,0.25337 2.71307,0.25219 2.71426,0.25218 2.71187,0.25218 2.71426,0.25338 2.71307,0.25099 2.71187,0.25339 2.71307,0.25217 2.71427,0.25099 2.71306,0.25218 2.71188,0.25338 2.71426,0.25099 2.71306,0.25339 2.71306,0.25217 2.71308,0.25219 2.71306,0.25219 2.71426,0.25337 2.71188,0.25219 2.71306,0.25218 2.71426,0.25218 2.71307,0.25219 2.71187,0.25099 2.71426,0.25337 2.71307,0.2522 2.71426,0.25217 2.71187,0.25218 2.71307,0.2522 2.71308,0.25336 2.71186,0.2522 2.71426,0.25217 2.71308,0.25219 2.71426,0.25337 2.71186,0.25099 2.71308,0.25339 2.71426,0.25218 2.71306,0.25098 2.71188,0.25219" /></g></svg>