<?xml version="1.0" encoding="UTF-8" standalone="no"?>
<!-- Created with Inkscape (http://www.inkscape.org/) -->

<svg
   xmlns:dc="http://purl.org/dc/elements/1.1/"
   xmlns:cc="http://creativecommons.org/ns#"
   xmlns:rdf="http://www.w3.org/1999/02/22-rdf-syntax-ns#"
   xmlns:svg="http://www.w3.org/2000/svg"
   xmlns="http://www.w3.org/2000/svg"
   xmlns:sodipodi="http://sodipodi.sourceforge.net/DTD/sodipodi-0.dtd"
   xmlns:inkscape="http://www.inkscape.org/namespaces/inkscape"
   version="1.1"
   id="svg4504"
   xml:space="preserve"
   width="655.11755"
   height="239.63676"
   viewBox="0 0 655.11755 239.63675"
   sodipodi:docname="WarrenIdeal.svg"
   inkscape:version="0.92.1 r15371"><metadata
     id="metadata4510"><rdf:RDF><cc:Work
         rdf:about=""><dc:format>image/svg+xml</dc:format><dc:type
           rdf:resource="http://purl.org/dc/dcmitype/StillImage" /><dc:title></dc:title></cc:Work></rdf:RDF></metadata><defs
     id="defs4508"><clipPath
       clipPathUnits="userSpaceOnUse"
       id="clipPath4522"><path
         d="m 720,969.602 h 6980.4 v 4010.4 H 720 Z"
         id="path4520"
         inkscape:connector-curvature="0" /></clipPath></defs><sodipodi:namedview
     pagecolor="#ffffff"
     bordercolor="#666666"
     borderopacity="1"
     objecttolerance="10"
     gridtolerance="10"
     guidetolerance="10"
     inkscape:pageopacity="0"
     inkscape:pageshadow="2"
     inkscape:window-width="1680"
     inkscape:window-height="988"
     id="namedview4506"
     showgrid="false"
     fit-margin-left="1"
     fit-margin-top="1"
     fit-margin-right="1"
     fit-margin-bottom="1"
     inkscape:zoom="1.0014546"
     inkscape:cx="505.29124"
     inkscape:cy="151.30871"
     inkscape:window-x="0"
     inkscape:window-y="25"
     inkscape:window-maximized="1"
     inkscape:current-layer="g4512" /><g
     id="g4512"
     inkscape:groupmode="layer"
     inkscape:label="ink_ext_XXXXXX"
     transform="matrix(0,1.3333333,1.3333333,0,-81.847411,-358.54227)"><path
       inkscape:connector-curvature="0"
       id="path4524"
       style="fill:none;stroke:#000000;stroke-width:0.75;stroke-linecap:butt;stroke-linejoin:miter;stroke-miterlimit:10;stroke-dasharray:none;stroke-opacity:1"
       d="m 280.02029,463.18256 h 146.646" /><path
       inkscape:connector-curvature="0"
       id="path4526"
       style="fill:none;stroke:#000000;stroke-width:3.75;stroke-linecap:butt;stroke-linejoin:miter;stroke-miterlimit:10;stroke-dasharray:none;stroke-opacity:1"
       d="m 431.49529,468.01256 v 68.536" /><path
       inkscape:connector-curvature="0"
       id="path4528"
       style="fill:none;stroke:#000000;stroke-width:0.75;stroke-linecap:butt;stroke-linejoin:miter;stroke-miterlimit:10;stroke-dasharray:none;stroke-opacity:1"
       d="m 280.02029,306.78856 h 146.646" /><path
       inkscape:connector-curvature="0"
       id="path4530"
       style="fill:none;stroke:#000000;stroke-width:3.75;stroke-linecap:butt;stroke-linejoin:miter;stroke-miterlimit:10;stroke-dasharray:none;stroke-opacity:1"
       d="m 431.49529,311.61956 v 68.535" /><path
       inkscape:connector-curvature="0"
       id="path4532"
       style="fill:none;stroke:#000000;stroke-width:0.75;stroke-linecap:butt;stroke-linejoin:miter;stroke-miterlimit:10;stroke-dasharray:none;stroke-opacity:1"
       d="m 280.02029,150.39656 h 146.646" /><path
       inkscape:connector-curvature="0"
       id="path4534"
       style="fill:none;stroke:#000000;stroke-width:3.75;stroke-linecap:butt;stroke-linejoin:miter;stroke-miterlimit:10;stroke-dasharray:none;stroke-opacity:1"
       d="m 431.49529,155.22656 v 68.536" /><path
       inkscape:connector-curvature="0"
       id="path4536"
       style="fill:none;stroke:#000000;stroke-width:2.25;stroke-linecap:butt;stroke-linejoin:miter;stroke-miterlimit:10;stroke-dasharray:none;stroke-opacity:1"
       d="m 427.17629,387.14556 -147.666,73.876" /><path
       inkscape:connector-curvature="0"
       id="path4538"
       style="fill:none;stroke:#000000;stroke-width:2.25;stroke-linecap:butt;stroke-linejoin:miter;stroke-miterlimit:10;stroke-dasharray:none;stroke-opacity:1"
       d="m 279.51029,308.94956 147.666,73.875" /><path
       inkscape:connector-curvature="0"
       id="path4540"
       style="fill:none;stroke:#000000;stroke-width:2.25;stroke-linecap:butt;stroke-linejoin:miter;stroke-miterlimit:10;stroke-dasharray:none;stroke-opacity:1"
       d="m 427.17629,230.75356 -147.666,73.875" /><path
       inkscape:connector-curvature="0"
       id="path4542"
       style="fill:none;stroke:#000000;stroke-width:2.25;stroke-linecap:butt;stroke-linejoin:miter;stroke-miterlimit:10;stroke-dasharray:none;stroke-opacity:1"
       d="m 279.51029,152.55656 147.666,73.876" /><path
       inkscape:connector-curvature="0"
       id="path4544"
       style="fill:none;stroke:#000000;stroke-width:3.75;stroke-linecap:butt;stroke-linejoin:miter;stroke-miterlimit:10;stroke-dasharray:none;stroke-opacity:1"
       d="m 279.51029,465.34256 147.666,73.875" /><path
       inkscape:connector-curvature="0"
       id="path4546"
       style="fill:none;stroke:#000000;stroke-width:3.75;stroke-linecap:butt;stroke-linejoin:miter;stroke-miterlimit:10;stroke-dasharray:none;stroke-opacity:1"
       d="m 279.51029,148.23556 147.666,-73.875" /><path
       inkscape:connector-curvature="0"
       id="path4548"
       style="fill:none;stroke:#000000;stroke-width:3.75;stroke-linecap:butt;stroke-linejoin:miter;stroke-miterlimit:10;stroke-dasharray:none;stroke-opacity:1"
       d="m 275.19329,311.61956 v 146.732" /><path
       inkscape:connector-curvature="0"
       id="path4550"
       style="fill:none;stroke:#000000;stroke-width:3.75;stroke-linecap:butt;stroke-linejoin:miter;stroke-miterlimit:10;stroke-dasharray:none;stroke-opacity:1"
       d="m 275.19329,155.22656 v 146.731" /><path
       inkscape:connector-curvature="0"
       id="path4552"
       style="fill:none;stroke:#000000;stroke-width:3.75;stroke-linecap:butt;stroke-linejoin:miter;stroke-miterlimit:10;stroke-dasharray:none;stroke-opacity:1"
       d="m 431.49529,389.81656 v 68.535" /><path
       inkscape:connector-curvature="0"
       id="path4554"
       style="fill:none;stroke:#000000;stroke-width:3.75;stroke-linecap:butt;stroke-linejoin:miter;stroke-miterlimit:10;stroke-dasharray:none;stroke-opacity:1"
       d="m 431.49529,233.42356 v 68.534" /><path
       inkscape:connector-curvature="0"
       id="path4556"
       style="fill:none;stroke:#000000;stroke-width:3.75;stroke-linecap:butt;stroke-linejoin:miter;stroke-miterlimit:10;stroke-dasharray:none;stroke-opacity:1"
       d="m 431.49529,77.03056 v 68.535" /><g
       transform="matrix(0,0.100029,-0.0999711,0,719.63929,-69.88044)"
       id="g4558"
       style="stroke:#000000;stroke-width:14.17322254;stroke-miterlimit:10;stroke-dasharray:none"><path
         inkscape:connector-curvature="0"
         id="path4560"
         style="fill:none;stroke:#000000;stroke-width:14.17322254;stroke-linecap:butt;stroke-linejoin:miter;stroke-miterlimit:10;stroke-dasharray:none;stroke-opacity:1"
         d="m 5377.39,2882.27 c 0,26.67 -21.63,48.3 -48.3,48.3 -26.67,0 -48.3,-21.63 -48.3,-48.3" /></g><g
       transform="matrix(0,0.100029,-0.0999711,0,719.63929,-69.88044)"
       id="g4562"
       style="stroke:#000000;stroke-width:14.17322254;stroke-miterlimit:10;stroke-dasharray:none"><path
         inkscape:connector-curvature="0"
         id="path4564"
         style="fill:none;stroke:#000000;stroke-width:14.17322254;stroke-linecap:butt;stroke-linejoin:miter;stroke-miterlimit:10;stroke-dasharray:none;stroke-opacity:1"
         d="m 5280.79,2882.27 c 0,-26.67 21.63,-48.29 48.3,-48.29 26.67,0 48.3,21.62 48.3,48.29" /></g><g
       transform="matrix(0,0.100029,-0.0999711,0,719.63929,-69.88044)"
       id="g4566"
       style="stroke:#000000;stroke-width:14.17322254;stroke-miterlimit:10;stroke-dasharray:none"><path
         inkscape:connector-curvature="0"
         id="path4568"
         style="fill:none;stroke:#000000;stroke-width:14.17322254;stroke-linecap:butt;stroke-linejoin:miter;stroke-miterlimit:10;stroke-dasharray:none;stroke-opacity:1"
         d="m 3813.9,2882.27 c 0,26.67 -21.62,48.3 -48.3,48.3 -26.67,0 -48.29,-21.63 -48.29,-48.3" /></g><g
       transform="matrix(0,0.100029,-0.0999711,0,719.63929,-69.88044)"
       id="g4570"
       style="stroke:#000000;stroke-width:14.17322254;stroke-miterlimit:10;stroke-dasharray:none"><path
         inkscape:connector-curvature="0"
         id="path4572"
         style="fill:none;stroke:#000000;stroke-width:14.17322254;stroke-linecap:butt;stroke-linejoin:miter;stroke-miterlimit:10;stroke-dasharray:none;stroke-opacity:1"
         d="m 3717.31,2882.27 c 0,-26.67 21.62,-48.29 48.29,-48.29 26.68,0 48.3,21.62 48.3,48.29" /></g><g
       transform="matrix(0,0.100029,-0.0999711,0,719.63929,-69.88044)"
       id="g4574"
       style="stroke:#000000;stroke-width:14.17322254;stroke-miterlimit:10;stroke-dasharray:none"><path
         inkscape:connector-curvature="0"
         id="path4576"
         style="fill:none;stroke:#000000;stroke-width:14.17322254;stroke-linecap:butt;stroke-linejoin:miter;stroke-miterlimit:10;stroke-dasharray:none;stroke-opacity:1"
         d="m 2250.43,2882.27 c 0,26.67 -21.62,48.3 -48.3,48.3 -26.67,0 -48.29,-21.63 -48.29,-48.3" /></g><g
       transform="matrix(0,0.100029,-0.0999711,0,719.63929,-69.88044)"
       id="g4578"
       style="stroke:#000000;stroke-width:14.17322254;stroke-miterlimit:10;stroke-dasharray:none"><path
         inkscape:connector-curvature="0"
         id="path4580"
         style="fill:none;stroke:#000000;stroke-width:14.17322254;stroke-linecap:butt;stroke-linejoin:miter;stroke-miterlimit:10;stroke-dasharray:none;stroke-opacity:1"
         d="m 2153.84,2882.27 c 0,-26.67 21.62,-48.29 48.29,-48.29 26.68,0 48.3,21.62 48.3,48.29" /></g><g
       transform="matrix(0,0.100029,-0.0999711,0,719.63929,-69.88044)"
       id="g4582"
       style="stroke:#000000;stroke-width:14.17322254;stroke-miterlimit:10;stroke-dasharray:none"><path
         inkscape:connector-curvature="0"
         id="path4584"
         style="fill:none;stroke:#000000;stroke-width:14.17322254;stroke-linecap:butt;stroke-linejoin:miter;stroke-miterlimit:10;stroke-dasharray:none;stroke-opacity:1"
         d="m 5377.39,4445.75 c 0,26.67 -21.63,48.29 -48.3,48.29 -26.67,0 -48.3,-21.62 -48.3,-48.29" /></g><g
       transform="matrix(0,0.100029,-0.0999711,0,719.63929,-69.88044)"
       id="g4586"
       style="stroke:#000000;stroke-width:14.17322254;stroke-miterlimit:10;stroke-dasharray:none"><path
         inkscape:connector-curvature="0"
         id="path4588"
         style="fill:none;stroke:#000000;stroke-width:14.17322254;stroke-linecap:butt;stroke-linejoin:miter;stroke-miterlimit:10;stroke-dasharray:none;stroke-opacity:1"
         d="m 5280.79,4445.75 c 0,-26.67 21.63,-48.3 48.3,-48.3 26.67,0 48.3,21.63 48.3,48.3" /></g><g
       transform="matrix(0,0.100029,-0.0999711,0,719.63929,-69.88044)"
       id="g4590"
       style="stroke:#000000;stroke-width:14.17322254;stroke-miterlimit:10;stroke-dasharray:none"><path
         inkscape:connector-curvature="0"
         id="path4592"
         style="fill:none;stroke:#000000;stroke-width:14.17322254;stroke-linecap:butt;stroke-linejoin:miter;stroke-miterlimit:10;stroke-dasharray:none;stroke-opacity:1"
         d="m 3813.9,4445.75 c 0,26.67 -21.62,48.29 -48.3,48.29 -26.67,0 -48.29,-21.62 -48.29,-48.29" /></g><g
       transform="matrix(0,0.100029,-0.0999711,0,719.63929,-69.88044)"
       id="g4594"
       style="stroke:#000000;stroke-width:14.17322254;stroke-miterlimit:10;stroke-dasharray:none"><path
         inkscape:connector-curvature="0"
         id="path4596"
         style="fill:none;stroke:#000000;stroke-width:14.17322254;stroke-linecap:butt;stroke-linejoin:miter;stroke-miterlimit:10;stroke-dasharray:none;stroke-opacity:1"
         d="m 3717.31,4445.75 c 0,-26.67 21.62,-48.3 48.29,-48.3 26.68,0 48.3,21.63 48.3,48.3" /></g><g
       transform="matrix(0,0.100029,-0.0999711,0,719.63929,-69.88044)"
       id="g4598"
       style="stroke:#000000;stroke-width:14.17322254;stroke-miterlimit:10;stroke-dasharray:none"><path
         inkscape:connector-curvature="0"
         id="path4600"
         style="fill:none;stroke:#000000;stroke-width:14.17322254;stroke-linecap:butt;stroke-linejoin:miter;stroke-miterlimit:10;stroke-dasharray:none;stroke-opacity:1"
         d="m 2250.43,4445.75 c 0,26.67 -21.62,48.29 -48.3,48.29 -26.67,0 -48.29,-21.62 -48.29,-48.29" /></g><g
       transform="matrix(0,0.100029,-0.0999711,0,719.63929,-69.88044)"
       id="g4602"
       style="stroke:#000000;stroke-width:14.17322254;stroke-miterlimit:10;stroke-dasharray:none"><path
         inkscape:connector-curvature="0"
         id="path4604"
         style="fill:none;stroke:#000000;stroke-width:14.17322254;stroke-linecap:butt;stroke-linejoin:miter;stroke-miterlimit:10;stroke-dasharray:none;stroke-opacity:1"
         d="m 2153.84,4445.75 c 0,-26.67 21.62,-48.3 48.29,-48.3 26.68,0 48.3,21.63 48.3,48.3" /></g><g
       transform="matrix(0,0.100029,-0.0999711,0,719.63929,-69.88044)"
       id="g4606"
       style="stroke:#000000;stroke-width:14.17322254;stroke-miterlimit:10;stroke-dasharray:none"><path
         inkscape:connector-curvature="0"
         id="path4608"
         style="fill:none;stroke:#000000;stroke-width:14.17322254;stroke-linecap:butt;stroke-linejoin:miter;stroke-miterlimit:10;stroke-dasharray:none;stroke-opacity:1"
         d="m 6159.12,2882.27 c 0,26.67 -21.63,48.3 -48.3,48.3 -26.67,0 -48.3,-21.63 -48.3,-48.3" /></g><g
       transform="matrix(0,0.100029,-0.0999711,0,719.63929,-69.88044)"
       id="g4610"
       style="stroke:#000000;stroke-width:14.17322254;stroke-miterlimit:10;stroke-dasharray:none"><path
         inkscape:connector-curvature="0"
         id="path4612"
         style="fill:none;stroke:#000000;stroke-width:14.17322254;stroke-linecap:butt;stroke-linejoin:miter;stroke-miterlimit:10;stroke-dasharray:none;stroke-opacity:1"
         d="m 6062.52,2882.27 c 0,-26.67 21.63,-48.29 48.3,-48.29 26.67,0 48.3,21.62 48.3,48.29" /></g><g
       id="g4874"><path
         d="m 443.11029,534.66856 -11.615,6.709 11.615,6.711"
         style="fill:#ffffff;stroke:#0000ff;stroke-width:1.5;stroke-linecap:butt;stroke-linejoin:miter;stroke-miterlimit:10;stroke-dasharray:none;stroke-opacity:1"
         id="path4614"
         inkscape:connector-curvature="0" /><path
         d="m 443.11029,531.31356 v 20.129"
         style="fill:none;stroke:#0000ff;stroke-width:1.5;stroke-linecap:butt;stroke-linejoin:miter;stroke-miterlimit:10;stroke-dasharray:none;stroke-opacity:1"
         id="path4616"
         inkscape:connector-curvature="0" /><path
         d="m 443.11029,535.33956 4.024,-4.026"
         style="fill:none;stroke:#0000ff;stroke-width:1.5;stroke-linecap:butt;stroke-linejoin:miter;stroke-miterlimit:10;stroke-dasharray:none;stroke-opacity:1"
         id="path4618"
         inkscape:connector-curvature="0" /><path
         d="m 443.11029,539.36556 4.024,-4.026"
         style="fill:none;stroke:#0000ff;stroke-width:1.5;stroke-linecap:butt;stroke-linejoin:miter;stroke-miterlimit:10;stroke-dasharray:none;stroke-opacity:1"
         id="path4620"
         inkscape:connector-curvature="0" /><path
         d="m 443.11029,543.39156 4.024,-4.026"
         style="fill:none;stroke:#0000ff;stroke-width:1.5;stroke-linecap:butt;stroke-linejoin:miter;stroke-miterlimit:10;stroke-dasharray:none;stroke-opacity:1"
         id="path4622"
         inkscape:connector-curvature="0" /><path
         d="m 443.11029,547.41756 4.024,-4.026"
         style="fill:none;stroke:#0000ff;stroke-width:1.5;stroke-linecap:butt;stroke-linejoin:miter;stroke-miterlimit:10;stroke-dasharray:none;stroke-opacity:1"
         id="path4624"
         inkscape:connector-curvature="0" /><path
         d="m 443.11029,551.44356 4.024,-4.026"
         style="fill:none;stroke:#0000ff;stroke-width:1.5;stroke-linecap:butt;stroke-linejoin:miter;stroke-miterlimit:10;stroke-dasharray:none;stroke-opacity:1"
         id="path4626"
         inkscape:connector-curvature="0" /></g><g
       transform="matrix(0,0.100029,-0.0999711,0,719.63929,-69.88044)"
       id="g4628"
       style="stroke:#000000;stroke-width:14.17322254;stroke-miterlimit:10;stroke-dasharray:none"><path
         inkscape:connector-curvature="0"
         id="path4630"
         style="fill:none;stroke:#000000;stroke-width:14.17322254;stroke-linecap:butt;stroke-linejoin:miter;stroke-miterlimit:10;stroke-dasharray:none;stroke-opacity:1"
         d="m 4595.64,2882.27 c 0,26.67 -21.62,48.3 -48.29,48.3 -26.67,0 -48.3,-21.63 -48.3,-48.3" /></g><g
       transform="matrix(0,0.100029,-0.0999711,0,719.63929,-69.88044)"
       id="g4632"
       style="stroke:#000000;stroke-width:14.17322254;stroke-miterlimit:10;stroke-dasharray:none"><path
         inkscape:connector-curvature="0"
         id="path4634"
         style="fill:none;stroke:#000000;stroke-width:14.17322254;stroke-linecap:butt;stroke-linejoin:miter;stroke-miterlimit:10;stroke-dasharray:none;stroke-opacity:1"
         d="m 4499.05,2882.27 c 0,-26.67 21.63,-48.29 48.3,-48.29 26.67,0 48.29,21.62 48.29,48.29" /></g><g
       transform="matrix(0,0.100029,-0.0999711,0,719.63929,-69.88044)"
       id="g4636"
       style="stroke:#000000;stroke-width:14.17322254;stroke-miterlimit:10;stroke-dasharray:none"><path
         inkscape:connector-curvature="0"
         id="path4638"
         style="fill:none;stroke:#000000;stroke-width:14.17322254;stroke-linecap:butt;stroke-linejoin:miter;stroke-miterlimit:10;stroke-dasharray:none;stroke-opacity:1"
         d="m 3032.16,2882.27 c 0,26.67 -21.63,48.3 -48.3,48.3 -26.67,0 -48.29,-21.63 -48.29,-48.3" /></g><g
       transform="matrix(0,0.100029,-0.0999711,0,719.63929,-69.88044)"
       id="g4640"
       style="stroke:#000000;stroke-width:14.17322254;stroke-miterlimit:10;stroke-dasharray:none"><path
         inkscape:connector-curvature="0"
         id="path4642"
         style="fill:none;stroke:#000000;stroke-width:14.17322254;stroke-linecap:butt;stroke-linejoin:miter;stroke-miterlimit:10;stroke-dasharray:none;stroke-opacity:1"
         d="m 2935.57,2882.27 c 0,-26.67 21.62,-48.29 48.29,-48.29 26.67,0 48.3,21.62 48.3,48.29" /></g><g
       transform="matrix(0,0.100029,-0.0999711,0,719.63929,-69.88044)"
       id="g4644"
       style="fill:#ffffff;stroke:#000000;stroke-width:14.17322254;stroke-miterlimit:10;stroke-dasharray:none"><path
         inkscape:connector-curvature="0"
         id="path4646"
         style="fill:#ffffff;stroke:#000000;stroke-width:14.17322254;stroke-linecap:butt;stroke-linejoin:miter;stroke-miterlimit:10;stroke-dasharray:none;stroke-opacity:1"
         d="m 1468.69,2882.27 c 0,26.67 -21.63,48.3 -48.3,48.3 -26.67,0 -48.29,-21.63 -48.29,-48.3" /></g><g
       transform="matrix(0,0.100029,-0.0999711,0,719.63929,-69.88044)"
       id="g4648"
       style="fill:#ffffff;stroke:#000000;stroke-width:14.17322254;stroke-miterlimit:10;stroke-dasharray:none"><path
         inkscape:connector-curvature="0"
         id="path4650"
         style="fill:#ffffff;stroke:#000000;stroke-width:14.17322254;stroke-linecap:butt;stroke-linejoin:miter;stroke-miterlimit:10;stroke-dasharray:none;stroke-opacity:1"
         d="m 1372.1,2882.27 c 0,-26.67 21.62,-48.29 48.29,-48.29 26.67,0 48.3,21.62 48.3,48.29" /></g><g
       id="g4865"><path
         d="m 443.11029,65.48956 -11.615,6.71 11.615,6.709"
         style="fill:#ffffff;stroke:#0000ff;stroke-width:1.5;stroke-linecap:butt;stroke-linejoin:miter;stroke-miterlimit:10;stroke-dasharray:none;stroke-opacity:1"
         id="path4652"
         inkscape:connector-curvature="0" /><path
         d="m 443.11029,62.13556 v 20.128"
         style="fill:none;stroke:#0000ff;stroke-width:1.5;stroke-linecap:butt;stroke-linejoin:miter;stroke-miterlimit:10;stroke-dasharray:none;stroke-opacity:1"
         id="path4654"
         inkscape:connector-curvature="0" /><path
         d="m 447.13429,62.13556 v 20.128"
         style="fill:none;stroke:#0000ff;stroke-width:1.5;stroke-linecap:butt;stroke-linejoin:miter;stroke-miterlimit:10;stroke-dasharray:none;stroke-opacity:1"
         id="path4656"
         inkscape:connector-curvature="0" /></g></g></svg>