<?xml version="1.0" encoding="UTF-8" standalone="no"?>
<svg
   xmlns:dc="http://purl.org/dc/elements/1.1/"
   xmlns:cc="http://creativecommons.org/ns#"
   xmlns:rdf="http://www.w3.org/1999/02/22-rdf-syntax-ns#"
   xmlns:svg="http://www.w3.org/2000/svg"
   xmlns="http://www.w3.org/2000/svg"
   xmlns:sodipodi="http://sodipodi.sourceforge.net/DTD/sodipodi-0.dtd"
   xmlns:inkscape="http://www.inkscape.org/namespaces/inkscape"
   enable-background="new 0 0 50 50"
   height="50px"
   id="Layer_1"
   version="1.1"
   viewBox="0 0 50 50"
   width="50px"
   xml:space="preserve"
   sodipodi:docname="menu.svg"
   inkscape:version="0.92.1 r15371"><metadata
     id="metadata35"><rdf:RDF><cc:Work
         rdf:about=""><dc:format>image/svg+xml</dc:format><dc:type
           rdf:resource="http://purl.org/dc/dcmitype/StillImage" /></cc:Work></rdf:RDF></metadata><defs
     id="defs33" /><sodipodi:namedview
     pagecolor="#ffffff"
     bordercolor="#666666"
     borderopacity="1"
     objecttolerance="10"
     gridtolerance="10"
     guidetolerance="10"
     inkscape:pageopacity="0"
     inkscape:pageshadow="2"
     inkscape:window-width="1440"
     inkscape:window-height="850"
     id="namedview31"
     showgrid="false"
     inkscape:zoom="6.675088"
     inkscape:cx="-13.76584"
     inkscape:cy="29.37113"
     inkscape:window-x="0"
     inkscape:window-y="22"
     inkscape:window-maximized="1"
     inkscape:current-layer="Layer_1" /><g
     id="g24"
     transform="matrix(1.1930741,0,0,1.1930741,-5.6955867,-4.9417676)"
     style="stroke-width:0.25145127;stroke:none;stroke-miterlimit:4;stroke-dasharray:none"><g
       id="g10"
       style="stroke-width:0.25145127;stroke:none;stroke-miterlimit:4;stroke-dasharray:none"><path
         d="M 15.982,15.682 V 15.678 H 15.9 14.241 13.835 c -0.737,0 -1.335,0.598 -1.335,1.335 v 2.623 c 0,0.737 0.598,1.335 1.335,1.335 h 0.406 1.659 0.082 v -0.004 c 0.699,-0.042 1.254,-0.621 1.254,-1.331 v -2.623 c -0.001,-0.71 -0.555,-1.288 -1.254,-1.331 z"
         id="path6"
         inkscape:connector-curvature="0"
         style="fill:#ffffff;stroke-width:0.25145127;stroke:none;stroke-miterlimit:4;stroke-dasharray:none" /><path
         d="M 36.182,15.678 H 22.338 20.192 20.064 v 0.006 c -0.678,0.064 -1.208,0.634 -1.208,1.329 v 2.623 c 0,0.694 0.53,1.265 1.208,1.329 v 0.006 h 0.128 2.146 13.845 c 0.737,0 1.335,-0.598 1.335,-1.335 v -2.623 c 0,-0.737 -0.598,-1.335 -1.336,-1.335 z"
         id="path8"
         inkscape:connector-curvature="0"
         style="fill:#ffffff;stroke-width:0.25145127;stroke:none;stroke-miterlimit:4;stroke-dasharray:none" /></g><g
       id="g16"
       style="stroke-width:0.25145127;stroke:none;stroke-miterlimit:4;stroke-dasharray:none"><path
         d="m 15.973,22.358 v -0.004 h -0.082 -1.659 -0.406 c -0.737,0 -1.335,0.598 -1.335,1.335 v 2.623 c 0,0.737 0.598,1.335 1.335,1.335 h 0.406 1.659 0.082 v -0.004 c 0.699,-0.042 1.254,-0.621 1.254,-1.331 V 23.689 C 17.226,22.979 16.672,22.4 15.973,22.358 Z"
         id="path12"
         inkscape:connector-curvature="0"
         style="fill:#ffffff;stroke-width:0.25145127;stroke:none;stroke-miterlimit:4;stroke-dasharray:none" /><path
         d="M 36.174,22.353 H 22.329 20.183 20.055 v 0.006 c -0.678,0.064 -1.208,0.634 -1.208,1.329 v 2.623 c 0,0.694 0.53,1.265 1.208,1.329 v 0.006 h 0.128 2.146 13.845 c 0.737,0 1.335,-0.598 1.335,-1.335 v -2.623 c 0,-0.737 -0.598,-1.335 -1.335,-1.335 z"
         id="path14"
         inkscape:connector-curvature="0"
         style="fill:#ffffff;stroke-width:0.25145127;stroke:none;stroke-miterlimit:4;stroke-dasharray:none" /></g><g
       id="g22"
       style="stroke-width:0.25145127;stroke:none;stroke-miterlimit:4;stroke-dasharray:none"><path
         d="m 15.973,29.033 v -0.004 h -0.082 -1.659 -0.406 c -0.737,0 -1.335,0.598 -1.335,1.335 v 2.623 c 0,0.737 0.598,1.335 1.335,1.335 h 0.406 1.659 0.082 v -0.004 c 0.699,-0.042 1.254,-0.621 1.254,-1.331 v -2.623 c -0.001,-0.71 -0.555,-1.289 -1.254,-1.331 z"
         id="path18"
         inkscape:connector-curvature="0"
         style="fill:#ffffff;stroke-width:0.25145127;stroke:none;stroke-miterlimit:4;stroke-dasharray:none" /><path
         d="M 36.174,29.029 H 22.329 20.183 20.055 v 0.006 c -0.678,0.064 -1.208,0.634 -1.208,1.329 v 2.623 c 0,0.694 0.53,1.265 1.208,1.329 v 0.006 h 0.128 2.146 13.845 c 0.737,0 1.335,-0.598 1.335,-1.335 v -2.623 c 0,-0.737 -0.598,-1.335 -1.335,-1.335 z"
         id="path20"
         inkscape:connector-curvature="0"
         style="fill:#ffffff;stroke-width:0.25145127;stroke:none;stroke-miterlimit:4;stroke-dasharray:none" /></g></g></svg>